<?xml version="1.0" encoding="UTF-8" standalone="no"?>
<svg
   xmlns:dc="http://purl.org/dc/elements/1.1/"
   xmlns:cc="http://creativecommons.org/ns#"
   xmlns:rdf="http://www.w3.org/1999/02/22-rdf-syntax-ns#"
   xmlns:svg="http://www.w3.org/2000/svg"
   xmlns="http://www.w3.org/2000/svg"
   width="256.0px"
   height="256.0px"
   viewBox="0 0 256.0 256.0"
   version="1.1"
   id="SVGRoot">
  <defs
     id="defs833">
    <style
       id="style1410">.cls-1{fill:#0b3278;}.cls-2,.cls-5{fill:#bdbdc0;}.cls-10,.cls-3{fill:#dabf84;}.cls-4,.cls-6{fill:#fff;}.cls-10,.cls-11,.cls-4,.cls-5{fill-rule:evenodd;}.cls-7{fill:#efd054;}.cls-8{fill:#a1765e;}.cls-9{fill:#b27f28;}.cls-11{fill:#3f3a41;}</style>
    <style
       id="style1219">.cls-1{fill:#0b3278;}.cls-2,.cls-5{fill:#bdbdc0;}.cls-10,.cls-3{fill:#dabf84;}.cls-4,.cls-6{fill:#fff;}.cls-10,.cls-11,.cls-4,.cls-5{fill-rule:evenodd;}.cls-7{fill:#efd054;}.cls-8{fill:#a1765e;}.cls-9{fill:#b27f28;}.cls-11{fill:#3f3a41;}</style>
    <style
       id="style1383">.cls-1{fill:#0b3278;}.cls-2,.cls-5{fill:#bdbdc0;}.cls-10,.cls-3{fill:#dabf84;}.cls-4,.cls-6{fill:#fff;}.cls-10,.cls-11,.cls-4,.cls-5{fill-rule:evenodd;}.cls-7{fill:#efd054;}.cls-8{fill:#a1765e;}.cls-9{fill:#b27f28;}.cls-11{fill:#3f3a41;}</style>
    <style
       id="style1713">.cls-1{fill:#0b3278;}.cls-2,.cls-5{fill:#bdbdc0;}.cls-10,.cls-3{fill:#dabf84;}.cls-4,.cls-6{fill:#fff;}.cls-10,.cls-11,.cls-4,.cls-5{fill-rule:evenodd;}.cls-7{fill:#efd054;}.cls-8{fill:#a1765e;}.cls-9{fill:#b27f28;}.cls-11{fill:#3f3a41;}</style>
    <style
       id="style1877">.cls-1{fill:#0b3278;}.cls-2,.cls-5{fill:#bdbdc0;}.cls-10,.cls-3{fill:#dabf84;}.cls-4,.cls-6{fill:#fff;}.cls-10,.cls-11,.cls-4,.cls-5{fill-rule:evenodd;}.cls-7{fill:#efd054;}.cls-8{fill:#a1765e;}.cls-9{fill:#b27f28;}.cls-11{fill:#3f3a41;}</style>
    <style
       id="style2949">.cls-1{fill:#0b3278;}.cls-2,.cls-5{fill:#bdbdc0;}.cls-10,.cls-3{fill:#dabf84;}.cls-4,.cls-6{fill:#fff;}.cls-10,.cls-11,.cls-4,.cls-5{fill-rule:evenodd;}.cls-7{fill:#efd054;}.cls-8{fill:#a1765e;}.cls-9{fill:#b27f28;}.cls-11{fill:#3f3a41;}</style>
    <style
       id="style3197">.cls-1{fill:#0b3278;}.cls-2,.cls-5{fill:#bdbdc0;}.cls-10,.cls-3{fill:#dabf84;}.cls-4,.cls-6{fill:#fff;}.cls-10,.cls-11,.cls-4,.cls-5{fill-rule:evenodd;}.cls-7{fill:#efd054;}.cls-8{fill:#a1765e;}.cls-9{fill:#b27f28;}.cls-11{fill:#3f3a41;}</style>
    <style
       id="style977">.cls-1{fill:#0b3278;}.cls-2,.cls-5{fill:#bdbdc0;}.cls-10,.cls-3{fill:#dabf84;}.cls-4,.cls-6{fill:#fff;}.cls-10,.cls-11,.cls-4,.cls-5{fill-rule:evenodd;}.cls-7{fill:#efd054;}.cls-8{fill:#a1765e;}.cls-9{fill:#b27f28;}.cls-11{fill:#3f3a41;}</style>
  </defs>
  <metadata
     id="metadata836">
    <rdf:RDF>
      <cc:Work
         rdf:about="">
        <dc:format>image/svg+xml</dc:format>
        <dc:type
           rdf:resource="http://purl.org/dc/dcmitype/StillImage" />
        <dc:title></dc:title>
      </cc:Work>
    </rdf:RDF>
  </metadata>
  <g
     id="layer20"
     style="display:inline">
    <circle
       style="display:inline;opacity:1;fill:#0b3278;fill-opacity:1;stroke-width:16.0627;paint-order:markers fill stroke"
       id="path1059"
       cx="128"
       cy="128"
       r="128" />
    <path
       id="path1061"
       style="display:inline;opacity:1;fill:#eecf54;fill-opacity:1;stroke-width:16.5225;paint-order:markers fill stroke"
       d="M 127.90625,1.5 A 126.5,126.5 0 0 0 1.5,128 126.5,126.5 0 0 0 128,254.5 126.5,126.5 0 0 0 254.5,128 126.5,126.5 0 0 0 128,1.5 a 126.5,126.5 0 0 0 -0.0937,0 z M 128,5.5 A 122.5,122.5 0 0 1 250.5,128 122.5,122.5 0 0 1 128,250.5 122.5,122.5 0 0 1 5.5,128 122.5,122.5 0 0 1 128,5.5 Z" />
    <path
       id="path1061-1"
       style="display:inline;opacity:1;fill:#eecf54;fill-opacity:1;stroke-width:15.8041;paint-order:markers fill stroke"
       d="M 127.55664,7 A 121,121 0 0 0 7,128 121,121 0 0 0 128,249 121,121 0 0 0 249,128 121,121 0 0 0 128,7 121,121 0 0 0 127.55664,7 Z M 128,8 A 120,120 0 0 1 248,128 120,120 0 0 1 128,248 120,120 0 0 1 8,128 120,120 0 0 1 128,8 Z" />
    <path
       id="path1061-3"
       style="display:inline;opacity:1;fill:#eecf54;fill-opacity:1;stroke-width:15.151;paint-order:markers fill stroke"
       d="M 127.82812,12 A 116,116 0 0 0 12,128 116,116 0 0 0 128,244 116,116 0 0 0 244,128 116,116 0 0 0 128,12 a 116,116 0 0 0 -0.17188,0 z m -0.11718,1 A 115,115 0 0 1 128,13 115,115 0 0 1 243,128 115,115 0 0 1 128,243 115,115 0 0 1 13,128 115,115 0 0 1 127.71094,13 Z" />
    <path
       id="path1059-9-2-2"
       style="display:inline;opacity:1;fill:#bdbdc0;fill-opacity:1;stroke-width:10.2273;paint-order:markers fill stroke"
       d="M 128,46.5 A 81.5,81.5 0 0 0 46.5,128 81.5,81.5 0 0 0 128,209.5 81.5,81.5 0 0 0 209.5,128 81.5,81.5 0 0 0 128,46.5 Z m 0,1 A 80.5,80.5 0 0 1 208.5,128 80.5,80.5 0 0 1 128,208.5 80.5,80.5 0 0 1 47.5,128 80.5,80.5 0 0 1 128,47.5 Z" />
    <g
       id="g1041"
       style="display:inline;opacity:1">
      <circle
         style="opacity:1;fill:#ffffff;fill-opacity:1;stroke-width:23.8383;paint-order:markers fill stroke"
         id="path1185"
         cx="128"
         cy="10"
         r="1" />
      <circle
         style="display:inline;opacity:1;fill:#ffffff;fill-opacity:1;stroke-width:23.8383;paint-order:markers fill stroke"
         id="path1185-8"
         cx="105"
         cy="12.25"
         r="1" />
      <circle
         style="display:inline;opacity:1;fill:#ffffff;fill-opacity:1;stroke-width:23.8383;paint-order:markers fill stroke"
         id="path1185-8-4"
         cx="151"
         cy="12.25"
         r="1" />
      <circle
         style="display:inline;opacity:1;fill:#ffffff;fill-opacity:1;stroke-width:23.8383;paint-order:markers fill stroke"
         id="path1185-8-4-3"
         cx="173"
         cy="19"
         r="1" />
      <circle
         style="display:inline;opacity:1;fill:#ffffff;fill-opacity:1;stroke-width:23.8383;paint-order:markers fill stroke"
         id="path1185-8-4-3-5"
         cx="83"
         cy="19"
         r="1" />
      <circle
         style="display:inline;opacity:1;fill:#ffffff;fill-opacity:1;stroke-width:23.8383;paint-order:markers fill stroke"
         id="path1185-8-4-3-5-0"
         cx="62.5"
         cy="30"
         r="1" />
      <circle
         style="display:inline;opacity:1;fill:#ffffff;fill-opacity:1;stroke-width:23.8383;paint-order:markers fill stroke"
         id="path1185-8-4-3-5-0-8"
         cx="193.5"
         cy="30"
         r="1" />
      <circle
         style="display:inline;opacity:1;fill:#ffffff;fill-opacity:1;stroke-width:23.8383;paint-order:markers fill stroke"
         id="path1185-8-4-3-5-0-3"
         cx="10"
         cy="128"
         r="1" />
      <circle
         style="display:inline;opacity:1;fill:#ffffff;fill-opacity:1;stroke-width:23.8383;paint-order:markers fill stroke"
         id="path1185-8-4-3-5-0-3-0"
         cx="128"
         cy="246"
         r="1" />
      <circle
         style="display:inline;opacity:1;fill:#ffffff;fill-opacity:1;stroke-width:23.8383;paint-order:markers fill stroke"
         id="path1185-8-4-3-5-0-3-0-7"
         cx="246"
         cy="128"
         r="1" />
      <circle
         style="display:inline;opacity:1;fill:#ffffff;fill-opacity:1;stroke-width:23.8383;paint-order:markers fill stroke"
         id="path1185-8-4-3-5-0-8-3"
         cx="211.5"
         cy="44.5"
         r="1" />
      <circle
         style="display:inline;opacity:1;fill:#ffffff;fill-opacity:1;stroke-width:23.8383;paint-order:markers fill stroke"
         id="path1185-8-4-3-5-0-8-3-6"
         cx="44.5"
         cy="211.5"
         r="1" />
      <circle
         style="display:inline;opacity:1;fill:#ffffff;fill-opacity:1;stroke-width:23.8383;paint-order:markers fill stroke"
         id="path1185-8-9"
         cx="12.25"
         cy="151"
         r="1" />
      <circle
         style="display:inline;opacity:1;fill:#ffffff;fill-opacity:1;stroke-width:23.8383;paint-order:markers fill stroke"
         id="path1185-8-2"
         cx="12.25"
         cy="105"
         r="1" />
      <circle
         style="display:inline;opacity:1;fill:#ffffff;fill-opacity:1;stroke-width:23.8383;paint-order:markers fill stroke"
         id="path1185-8-4-3-5-0-8-3-2"
         cx="44.5"
         cy="44.5"
         r="1" />
      <circle
         style="display:inline;opacity:1;fill:#ffffff;fill-opacity:1;stroke-width:23.8383;paint-order:markers fill stroke"
         id="path1185-8-4-3-5-0-8-3-2-8"
         cx="29.5"
         cy="63"
         r="1" />
      <circle
         style="display:inline;opacity:1;fill:#ffffff;fill-opacity:1;stroke-width:23.8383;paint-order:markers fill stroke"
         id="path1185-8-4-3-5-0-8-3-29"
         cx="226.5"
         cy="63"
         r="1" />
      <circle
         style="display:inline;opacity:1;fill:#ffffff;fill-opacity:1;stroke-width:23.8383;paint-order:markers fill stroke"
         id="path1185-8-4-3-5-0-8-3-2-8-3"
         cx="19"
         cy="83"
         r="1" />
      <circle
         style="display:inline;opacity:1;fill:#ffffff;fill-opacity:1;stroke-width:23.8383;paint-order:markers fill stroke"
         id="path1185-8-2-2"
         cx="243.75"
         cy="105"
         r="1" />
      <circle
         style="display:inline;opacity:1;fill:#ffffff;fill-opacity:1;stroke-width:23.8383;paint-order:markers fill stroke"
         id="path1185-8-2-2-5"
         cx="243.75"
         cy="151"
         r="1" />
      <circle
         style="display:inline;opacity:1;fill:#ffffff;fill-opacity:1;stroke-width:23.8383;paint-order:markers fill stroke"
         id="path1185-8-4-3-5-0-8-3-2-8-3-2"
         cx="237"
         cy="83"
         r="1" />
      <circle
         style="display:inline;opacity:1;fill:#ffffff;fill-opacity:1;stroke-width:23.8383;paint-order:markers fill stroke"
         id="path1185-8-4-3-5-0-8-3-2-8-3-0"
         cx="19"
         cy="173"
         r="1" />
      <circle
         style="display:inline;opacity:1;fill:#ffffff;fill-opacity:1;stroke-width:23.8383;paint-order:markers fill stroke"
         id="path1185-8-4-3-5-0-8-3-2-8-0"
         cx="29.5"
         cy="193"
         r="1" />
      <circle
         style="display:inline;opacity:1;fill:#ffffff;fill-opacity:1;stroke-width:23.8383;paint-order:markers fill stroke"
         id="path1185-8-4-3-5-0-8-3-2-6"
         cx="44.5"
         cy="211.5"
         r="1" />
      <circle
         style="display:inline;opacity:1;fill:#ffffff;fill-opacity:1;stroke-width:23.8383;paint-order:markers fill stroke"
         id="path1185-8-4-3-5-0-8-3-6-6"
         cx="62.5"
         cy="226"
         r="1" />
      <circle
         style="display:inline;opacity:1;fill:#ffffff;fill-opacity:1;stroke-width:23.8383;paint-order:markers fill stroke"
         id="path1185-8-4-3-5-0-8-3-2-6-6"
         cx="211.5"
         cy="211.5"
         r="1" />
      <circle
         style="display:inline;opacity:1;fill:#ffffff;fill-opacity:1;stroke-width:23.8383;paint-order:markers fill stroke"
         id="path1185-8-4-3-5-0-8-3-6-6-2"
         cx="83"
         cy="237"
         r="1" />
      <circle
         style="display:inline;opacity:1;fill:#ffffff;fill-opacity:1;stroke-width:23.8383;paint-order:markers fill stroke"
         id="path1185-8-4-3-5-0-8-3-6-6-2-2"
         cx="105"
         cy="243.75"
         r="1" />
      <circle
         style="display:inline;opacity:1;fill:#ffffff;fill-opacity:1;stroke-width:23.8383;paint-order:markers fill stroke"
         id="path1185-8-4-3-5-0-8-3-6-6-2-2-8"
         cx="151"
         cy="243.75"
         r="1" />
      <circle
         style="display:inline;opacity:1;fill:#ffffff;fill-opacity:1;stroke-width:23.8383;paint-order:markers fill stroke"
         id="path1185-8-4-3-5-0-8-3-6-6-2-9"
         cx="173"
         cy="237"
         r="1" />
      <circle
         style="display:inline;opacity:1;fill:#ffffff;fill-opacity:1;stroke-width:23.8383;paint-order:markers fill stroke"
         id="path1185-8-4-3-5-0-8-3-6-6-9"
         cx="193.5"
         cy="226"
         r="1" />
      <circle
         style="display:inline;opacity:1;fill:#ffffff;fill-opacity:1;stroke-width:23.8383;paint-order:markers fill stroke"
         id="path1185-8-4-3-5-0-8-3-2-8-3-2-8"
         cx="237"
         cy="173"
         r="1" />
      <circle
         style="display:inline;opacity:1;fill:#ffffff;fill-opacity:1;stroke-width:23.8383;paint-order:markers fill stroke"
         id="path1185-8-4-3-5-0-8-3-29-9"
         cx="226.5"
         cy="193"
         r="1" />
    </g>
  </g>
  <g
     id="layer2"
     style="display:inline">
    <g
       id="g1567">
      <path
         style="display:inline;fill:#ffffff;fill-opacity:1;stroke:none;stroke-width:1px;stroke-linecap:butt;stroke-linejoin:miter;stroke-opacity:1"
         d="m 23.193659,163.53538 4.195301,-1.61201 1.652297,4.30014 5.372446,-2.06432 -1.63854,-4.26434 4.062983,-1.56117 1.623599,4.22545 9.972478,-3.83185 1.608617,4.18647 -20.802821,7.99333 a 2.9999986,2.9999986 23.981106 0 1 -3.876413,-1.72436 z"
         id="path978" />
      <path
         style="display:inline;fill:#ffffff;fill-opacity:1;stroke:none;stroke-width:1px;stroke-linecap:butt;stroke-linejoin:miter;stroke-opacity:1"
         d="m 232.22935,165.13092 -1.68532,4.17701 -19.29973,-7.78694 -1.75361,4.34626 -4.11904,-1.66193 2.31642,-5.74119 a 2.9999982,2.9999982 156.9728 0 1 3.90458,-1.65959 z"
         id="path996-2-2" />
      <path
         id="path980"
         style="display:inline;fill:#ffffff;fill-opacity:1;stroke:none;stroke-width:1px;stroke-linecap:butt;stroke-linejoin:miter;stroke-opacity:1"
         d="m 40.644345,141.22701 -18.878534,3.97177 a 2.9997747,2.9997747 0 0 0 -2.317878,3.55332 l 1.168587,5.55244 a 3.0002253,3.0002253 0 0 0 3.553588,2.31806 l 18.878534,-3.97177 a 2.9997747,2.9997747 0 0 0 2.317878,-3.55332 l -1.168587,-5.55244 a 3.0002253,3.0002253 0 0 0 -3.553588,-2.31806 z m -0.415829,4.69096 0.5625,2.68945 -16.080078,3.36524 -0.5625,-2.68946 z" />
      <path
         style="display:inline;fill:#ffffff;fill-opacity:1;stroke:none;stroke-width:1px;stroke-linecap:butt;stroke-linejoin:miter;stroke-opacity:1"
         d="m 38.444214,130.48658 0.08136,2.82738 -20.872334,0.60064 0.128506,4.46558 22.1849,-0.63841 a 3,3 0 0 0 2.912464,-3.08506 l -0.163505,-5.68177 a 3,3 0 0 0 -3.085054,-2.91246 l -22.190456,0.63857 0.126226,4.38633 z"
         id="path984" />
      <path
         style="display:inline;fill:#ffffff;fill-opacity:1;stroke:none;stroke-width:1px;stroke-linecap:butt;stroke-linejoin:miter;stroke-opacity:1"
         d="m 43.651473,115.63776 0.610226,-4.45465 -22.116773,-3.02969 a 3.0000002,3.0000002 0 0 0 -3.379398,2.56508 l -1.172529,8.55946 25.038962,3.42999 0.596101,-4.35153 -20.475185,-2.80482 0.373359,-2.72552 z"
         id="path986" />
      <path
         style="display:inline;fill:#ffffff;fill-opacity:1;stroke:none;stroke-width:1px;stroke-linecap:butt;stroke-linejoin:miter;stroke-opacity:1"
         d="m 28.212765,91.594866 -1.017043,3.234196 19.970033,6.279888 -1.343341,4.27182 -19.93441,-6.26868 -1.096558,3.48705 -4.180204,-1.31453 3.456942,-10.993071 z"
         id="path988" />
      <path
         id="path990"
         style="display:inline;fill:#ffffff;fill-opacity:1;stroke:none;stroke-width:1px;stroke-linecap:butt;stroke-linejoin:miter;stroke-opacity:1"
         d="m 30.18417,76.366907 -2.52459,5.182202 a 3.0003987,3.0003987 0 0 0 1.382933,4.011221 l 19.963346,9.728732 1.972657,-4.048828 -9.53125,-4.644531 1.253906,-2.572265 9.509766,4.634765 1.927734,-3.955078 -19.943803,-9.718991 a 2.9996278,2.9996278 0 0 0 -4.010699,1.382773 z m 3.358799,3.185827 5.207031,2.625 -1.261719,2.503907 -5.207031,-2.625 z" />
      <path
         style="display:inline;fill:#ffffff;fill-opacity:1;stroke:none;stroke-width:1px;stroke-linecap:butt;stroke-linejoin:miter;stroke-opacity:1"
         d="M 37.203422,64.968688 58.309314,78.690246 55.863428,82.4524 34.757536,68.730842 Z"
         id="path994" />
      <path
         style="display:inline;fill:#ffffff;fill-opacity:1;stroke:none;stroke-width:1px;stroke-linecap:butt;stroke-linejoin:miter;stroke-opacity:1"
         d="m 97.107238,21.754544 4.373282,-1.078066 4.98115,20.206541 4.55047,-1.121744 1.0631,4.31258 -6.01095,1.481769 a 3.0000002,3.0000002 0 0 1 -3.63084,-2.194762 z"
         id="path996" />
      <path
         style="display:inline;fill:#ffffff;fill-opacity:1;stroke:none;stroke-width:1px;stroke-linecap:butt;stroke-linejoin:miter;stroke-opacity:1"
         d="m 134.88524,17.619366 -0.0863,4.343713 -4.59851,-0.09136 -0.1172,5.898766 4.61375,0.09166 -0.0865,4.354948 -4.67783,-0.09294 -0.12519,6.301335 4.7162,0.0937 -0.086,4.32648 -6.07821,-0.120759 a 3.0000004,3.0000004 0 0 1 -2.93982,-3.058999 l 0.38198,-19.226427 a 2.9999977,2.9999977 0 0 1 3.059,-2.939815 z"
         id="path1006" />
      <path
         style="display:inline;fill:#ffffff;fill-opacity:1;stroke:none;stroke-width:1px;stroke-linecap:butt;stroke-linejoin:miter;stroke-opacity:1"
         d="m 171.77803,26.306792 3.95537,1.898577 -4.4568,9.284991 2.42541,1.164194 4.44265,-9.255533 4.03393,1.936283 -10.92686,22.76429 -4.15363,-1.993741 4.56565,-9.511773 -2.37818,-1.141525 -4.54545,9.46969 -3.88289,-1.863788 z"
         id="path1008" />
      <path
         style="display:inline;fill:#ffffff;fill-opacity:1;stroke:none;stroke-width:1px;stroke-linecap:butt;stroke-linejoin:miter;stroke-opacity:1"
         d="m 197.60123,50.933499 3.36641,3.071469 2.40114,-2.63171 a 3.0000012,3.0000012 0 0 0 -0.19417,-4.238196 l -4.22902,-3.858502 a 2.9999993,2.9999993 0 0 0 -4.23819,0.194166 l -12.60577,13.816248 a 3.0000014,3.0000014 0 0 0 0.19417,4.238196 l 4.18029,3.814045 a 2.9999994,2.9999994 0 0 0 4.23819,-0.194166 l 7.79523,-8.543768 -4.12355,-3.762273 -3.15003,3.452507 0.77919,0.710923 -4.76725,5.225033 -1.97811,-1.804803 11.8095,-12.943526 2.00479,1.829143 z"
         id="path1010" />
      <path
         style="fill:#ffffff;fill-opacity:1;stroke:none;stroke-width:1px;stroke-linecap:butt;stroke-linejoin:miter;stroke-opacity:1"
         d="m 231.19485,87.967382 -3.95537,1.826661 -2.18714,-4.735932 -5.82338,2.689345 0.89046,1.928152 a 2.9999984,2.9999984 0 0 1 -1.46579,3.98139 l -7.58234,3.501662 a 3.000001,3.000001 0 0 1 -3.98139,-1.465786 l -2.82793,-6.123462 3.97145,-1.834086 2.20828,4.781712 5.07507,-2.343757 -0.86263,-1.867888 a 2.999998,2.999998 0 0 1 1.46579,-3.981389 l 8.37303,-3.866819 a 2.9999991,2.9999991 0 0 1 3.98139,1.465787 l 2.77895,6.017414 z"
         id="path1025" />
      <path
         style="fill:#ffffff;fill-opacity:1;stroke:none;stroke-width:1px;stroke-linecap:butt;stroke-linejoin:miter;stroke-opacity:1"
         d="m 231.50943,104.29773 -1.20634,-4.478628 -15.91907,4.287878 1.19785,4.44713 -4.17938,1.12574 -1.56641,-5.81543 a 2.9999993,2.9999993 0 0 1 2.1165,-3.67701 l 18.53128,-4.99149 a 2.9999996,2.9999996 0 0 1 3.67701,2.116502 l 1.5749,5.846928 z"
         id="path1028" />
      <path
         style="display:inline;fill:#ffffff;fill-opacity:1;stroke:none;stroke-width:1px;stroke-linecap:butt;stroke-linejoin:miter;stroke-opacity:1"
         d="M 64.902558,70.674511 67.89466,67.318381 51.2319,52.462973 a 3.0000001,3.0000001 0 0 0 -4.235683,0.242888 l -5.749222,6.448689 18.864337,16.818182 2.922839,-3.278439 -15.425988,-13.752785 1.830679,-2.053405 z"
         id="path986-1" />
      <path
         style="display:inline;fill:#ffffff;fill-opacity:1;stroke:none;stroke-width:1px;stroke-linecap:butt;stroke-linejoin:miter;stroke-opacity:1"
         d="m 111.06782,18.657598 4.47579,-0.505036 2.3335,20.680207 4.65714,-0.525497 0.49802,4.413672 -6.15185,0.694156 a 3,3 0 0 1 -3.31746,-2.644705 z"
         id="path996-2" />
      <path
         style="display:inline;fill:#ffffff;fill-opacity:1;stroke:none;stroke-width:1px;stroke-linecap:butt;stroke-linejoin:miter;stroke-opacity:1"
         d="m 190.99315,37.17694 -13.71269,21.111657 -3.76318,-2.444305 13.71268,-21.111657 z"
         id="path994-7" />
      <path
         style="display:inline;fill:#ffffff;fill-opacity:1;stroke:none;stroke-width:1px;stroke-linecap:butt;stroke-linejoin:miter;stroke-opacity:1"
         d="m 210.24367,53.878452 2.80119,3.376812 -7.92687,6.57563 1.71768,2.07064 7.90171,-6.554772 2.85683,3.443878 -19.43453,16.121672 -2.9416,-3.546071 8.12047,-6.736239 -1.68423,-2.030319 -8.08454,6.706435 -2.74986,-3.314935 z"
         id="path1008-0" />
      <path
         style="display:inline;fill:#ffffff;fill-opacity:1;stroke:none;stroke-width:1px;stroke-linecap:butt;stroke-linejoin:miter;stroke-opacity:1"
         d="m 237.05636,108.90196 0.57901,4.34905 -10.20916,1.35918 0.35505,2.66682 10.17676,-1.35487 0.59051,4.43543 -25.03008,3.33234 -0.60803,-4.56705 10.4585,-1.39238 -0.34814,-2.61489 -10.41221,1.38623 -0.5684,-4.26936 z"
         id="path1008-0-6" />
      <path
         id="path980-7"
         style="display:inline;fill:#ffffff;fill-opacity:1;stroke:none;stroke-width:1px;stroke-linecap:butt;stroke-linejoin:miter;stroke-opacity:1"
         d="m 215.68505,138.83069 19.25004,1.26867 a 2.9997743,2.9997743 0 0 0 3.19057,-2.79624 l 0.37271,-5.66183 a 3.0002257,3.0002257 0 0 0 -2.79645,-3.1908 l -19.25004,-1.26867 a 2.9997743,2.9997743 0 0 0 -3.19057,2.79624 l -0.37271,5.66183 a 3.0002257,3.0002257 0 0 0 2.79645,3.1908 z m 1.66595,-4.40483 0.18393,-2.74148 16.39173,1.09771 -0.18393,2.74149 z" />
      <path
         id="path980-7-5"
         style="display:inline;fill:#ffffff;fill-opacity:1;stroke:none;stroke-width:1px;stroke-linecap:butt;stroke-linejoin:miter;stroke-opacity:1"
         d="m 212.71287,153.09383 18.77982,4.41502 a 2.9997745,2.9997745 0 0 0 3.60672,-2.23387 l 1.29813,-5.5236 a 3.0002255,3.0002255 0 0 0 -2.23404,-3.60699 l -18.77982,-4.41502 a 2.9997745,2.9997745 0 0 0 -3.60672,2.23387 l -1.29813,5.5236 a 3.0002255,3.0002255 0 0 0 2.23404,3.60699 z m 2.3672,-4.07116 0.63198,-2.67397 15.98845,3.77665 -0.63196,2.67399 z" />
      <path
         id="path990-4"
         style="display:inline;fill:#ffffff;fill-opacity:1;stroke:none;stroke-width:1px;stroke-linecap:butt;stroke-linejoin:miter;stroke-opacity:1"
         d="m 88.031406,24.866947 -5.304716,2.255828 a 3.0003986,3.0003986 0 0 0 -1.587106,3.934907 l 8.687952,20.437781 4.144704,-1.762331 -4.14817,-9.757514 2.63367,-1.119198 4.13836,9.736051 4.0493,-1.721029 -8.679586,-20.417611 a 2.9996274,2.9996274 0 0 0 -3.934408,-1.586884 z m 0.445739,4.607857 2.20871,5.396794 -2.594732,1.062474 -2.208709,-5.396794 z" />
      <path
         style="fill:#ffffff;fill-opacity:1;stroke:none;stroke-width:1px;stroke-linecap:butt;stroke-linejoin:miter;stroke-opacity:1"
         d="M 79.76666,52.103098 C 78.354517,46.689041 73.717563,39.7358 70.067544,33.937056 v 0 0 l 3.769757,-2.347709 c 4.492369,6.905064 8.964346,13.744049 10.332919,20.258639 0.198416,0.944486 0.257512,1.770739 0.246176,2.853353 L 80.10194,57.441377 C 79.016371,56.980732 77.994541,56.289481 76.985422,55.442578 72.026329,51.280664 67.885761,44.472906 63.796875,37.800781 l 3.789062,-2.351562 c 3.690747,5.551293 7.260234,12.152593 12.180723,16.653879 z"
         id="path1244" />
      <path
         style="fill:#ffffff;fill-opacity:1;stroke:none;stroke-width:1px;stroke-linecap:butt;stroke-linejoin:miter;stroke-opacity:1"
         d="m 141.04571,18.163805 4.40836,0.784447 c -0.67179,4.137109 -1.24121,8.871618 -0.62976,12.484854 1.90189,-3.523222 2.72524,-8.230431 3.414,-12.065009 l 4.37522,0.673961 c -0.55614,4.879491 -1.75082,8.844688 -3.41813,11.952309 -0.81647,1.521784 -1.6898,2.73612 -2.78915,3.919695 l -1.33594,8.367188 -4.375,-0.71875 1.33594,-8.3125 c -0.62046,-1.272671 -1.1407,-2.868141 -1.43766,-4.422619 -0.63152,-3.305672 -0.54552,-7.089868 0.45212,-12.663576 z"
         id="path1246" />
    </g>
    <g
       id="g1582"
       transform="rotate(80.407681,127.64645,128)">
      <path
         id="path980-7-2"
         style="display:inline;fill:#ffffff;fill-opacity:1;stroke:none;stroke-width:0.364229px;stroke-linecap:butt;stroke-linejoin:miter;stroke-opacity:1"
         d="m 164.19361,227.48725 -2.29392,-6.64166 a 1.0926057,1.0926057 0 0 0 -1.38949,-0.67602 l -2.9862,1.03163 3.00736,8.70729 2.98617,-1.03162 a 1.0927706,1.0927706 0 0 0 0.67608,-1.38962 z m -1.71412,0.0631 -0.94633,0.32559 -1.94746,-5.65795 0.94634,-0.3256 z" />
      <path
         id="path980-7-5-0"
         style="display:inline;fill:#ffffff;fill-opacity:1;stroke:none;stroke-width:0.359638px;stroke-linecap:butt;stroke-linejoin:miter;stroke-opacity:1"
         d="m 163.52894,220.31027 2.61837,6.42502 a 1.0788332,1.0788332 0 0 0 1.40629,0.59187 l 1.88966,-0.77025 a 1.0789954,1.0789954 0 0 0 0.59193,-1.40638 l -2.61838,-6.42503 a 1.0788332,1.0788332 0 0 0 -1.40629,-0.59187 l -1.88965,0.77025 a 1.0789954,1.0789954 0 0 0 -0.59193,1.40639 z m 1.68662,-0.15426 0.91553,-0.37181 2.22394,5.47376 -0.91551,0.37184 z" />
      <path
         id="path986-1-9"
         style="display:inline;fill:#ffffff;fill-opacity:1;stroke:none;stroke-width:0.356338px;stroke-linecap:butt;stroke-linejoin:miter;stroke-opacity:1"
         d="m 174.47354,214.39268 c -0.21326,-0.03 -0.43066,0.005 -0.62361,0.1009 l -5.08059,2.49702 3.99812,8.06944 1.40245,-0.69477 -3.26885,-6.599 0.87798,-0.43455 3.27744,6.61472 0.0328,-0.0163 1.40247,-0.69476 -3.26885,-6.59899 0.87805,-0.43527 3.27745,6.61476 1.43529,-0.71112 -3.53129,-7.12793 c -0.15666,-0.31632 -0.45937,-0.5349 -0.8089,-0.58413 z" />
      <path
         style="display:inline;fill:#ffffff;fill-opacity:1;stroke:none;stroke-width:0.362477px;stroke-linecap:butt;stroke-linejoin:miter;stroke-opacity:1"
         d="m 177.70282,212.24668 4.68493,7.8306 -1.39579,0.83509 -4.68493,-7.8306 z"
         id="path994-3" />
      <path
         style="display:inline;fill:#ffffff;fill-opacity:1;stroke:none;stroke-width:0.359176px;stroke-linecap:butt;stroke-linejoin:miter;stroke-opacity:1"
         d="m 186.68633,217.28563 1.34139,-0.89929 -4.46482,-6.65983 a 1.0775271,1.0775271 0 0 0 -1.49503,-0.295 l -2.57743,1.72794 5.05473,7.53977 1.31034,-0.87846 -4.13343,-6.16553 0.82072,-0.5502 z"
         id="path986-1-7" />
      <path
         style="display:inline;fill:#ffffff;fill-opacity:1;stroke:none;stroke-width:0.360314px;stroke-linecap:butt;stroke-linejoin:miter;stroke-opacity:1"
         d="m 191.1924,212.32132 -0.81898,0.60662 -4.47808,-6.04592 -1.2935,0.95807 4.75968,6.42613 a 1.0809434,1.0809434 0 0 0 1.512,0.2252 l 1.64579,-1.219 a 1.0809434,1.0809434 0 0 0 0.2253,-1.51198 l -4.76087,-6.42774 -1.27055,0.94107 z"
         id="path984-6" />
      <path
         style="display:inline;fill:#ffffff;fill-opacity:1;stroke:none;stroke-width:0.358654px;stroke-linecap:butt;stroke-linejoin:miter;stroke-opacity:1"
         d="m 192.00292,202.05458 0.98965,1.20925 -1.44788,1.18494 1.45702,1.78033 0.58948,-0.48243 a 1.0759617,1.0759617 0 0 1 1.51412,0.15116 l 1.89712,2.31809 a 1.0759627,1.0759627 0 0 1 -0.15116,1.51411 l -1.87206,1.5321 -0.99366,-1.21415 1.46188,-1.1964 -1.26981,-1.55154 -0.57104,0.46734 a 1.0759616,1.0759616 0 0 1 -1.51412,-0.15117 l -2.09495,-2.55982 a 1.075962,1.075962 0 0 1 0.15115,-1.51411 l 1.83966,-1.50558 z"
         id="path1025-83" />
      <path
         style="display:inline;fill:#ffffff;fill-opacity:1;stroke:none;stroke-width:0.363882px;stroke-linecap:butt;stroke-linejoin:miter;stroke-opacity:1"
         d="m 198.38704,198.09177 -1.17681,1.20986 4.3003,4.18289 1.16854,-1.20132 1.129,1.09818 -1.52807,1.57094 a 1.0916445,1.0916445 0 0 1 -1.54367,0.0214 l -5.00595,-4.8693 a 1.0916446,1.0916446 0 0 1 -0.0214,-1.54368 l 1.53634,-1.57946 z"
         id="path1028-91" />
      <path
         style="display:inline;fill:#ffffff;fill-opacity:1;stroke:none;stroke-width:0.362043px;stroke-linecap:butt;stroke-linejoin:miter;stroke-opacity:1"
         d="m 198.47459,195.9206 1.08055,-1.22131 5.64303,4.99269 1.12434,-1.27079 1.20436,1.06557 -1.4852,1.67865 a 1.0861271,1.0861271 0 0 1 -1.53316,0.0937 z"
         id="path996-2-2-8" />
      <path
         id="path990-4-0"
         style="display:inline;fill:#ffffff;fill-opacity:1;stroke:none;stroke-width:0.361301px;stroke-linecap:butt;stroke-linejoin:miter;stroke-opacity:1"
         d="m 203.61002,189.9736 -1.30055,1.62672 a 1.0840464,1.0840464 0 0 0 0.16965,1.52356 l 6.26629,5.01126 1.01619,-1.27091 -2.99178,-2.39245 0.64582,-0.80739 2.985,2.38731 0.99292,-1.24143 -6.26018,-5.00629 a 1.0837678,1.0837678 0 0 0 -1.52336,0.16962 z m 0.93155,1.38917 1.62753,1.33791 -0.64318,0.78266 -1.62751,-1.3379 z" />
      <path
         style="display:inline;fill:#ffffff;fill-opacity:1;stroke:none;stroke-width:0.361054px;stroke-linecap:butt;stroke-linejoin:miter;stroke-opacity:1"
         d="m 212.79865,190.32968 c -1.23032,-1.6023 -3.74948,-3.26345 -5.77817,-4.67929 v 0 0 l 0.92396,-1.31048 c 2.46431,1.66544 4.91252,3.31178 6.28299,5.28623 0.19869,0.28627 0.33442,0.55276 0.48276,0.91443 l -1.05002,1.5175 c -0.42577,-6.6e-4 -0.86274,-0.087 -1.31736,-0.22693 -2.23412,-0.68751 -4.56773,-2.37003 -6.86509,-4.01468 l 0.92983,-1.31447 c 2.00748,1.32781 4.12215,3.02188 6.3911,3.82769 z"
         id="path1244-5" />
      <path
         style="display:inline;fill:#ffffff;fill-opacity:1;stroke:none;stroke-width:0.357895px;stroke-linecap:butt;stroke-linejoin:miter;stroke-opacity:1"
         d="m 210.81957,180.13707 1.30403,0.84691 -0.89659,1.38051 1.77086,1.15009 0.89955,-1.38508 1.30741,0.84908 -0.91204,1.40434 1.89172,1.22857 0.91952,-1.41583 1.29884,0.84355 -1.18508,1.82474 a 1.0736848,1.0736848 0 0 1 -1.48525,0.31565 l -5.77194,-3.74862 a 1.0736839,1.0736839 0 0 1 -0.31566,-1.48525 z"
         id="path1006-3" />
      <path
         id="path986-1-9-7"
         style="display:inline;fill:#ffffff;fill-opacity:1;stroke:none;stroke-width:0.356338px;stroke-linecap:butt;stroke-linejoin:miter;stroke-opacity:1"
         d="m 215.05323,173.2055 c -0.19252,0.0965 -0.35125,0.24924 -0.45566,0.43754 l -2.76,4.94266 7.87679,4.36541 0.75876,-1.36889 -6.44088,-3.57034 0.47524,-0.85665 6.45686,3.57839 0.0177,-0.0321 0.75877,-1.36888 -6.44086,-3.57033 0.47488,-0.85729 6.4569,3.57843 0.77648,-1.40101 -6.95747,-3.85628 c -0.30873,-0.17116 -0.68202,-0.17889 -0.99756,-0.0206 z" />
    </g>
    <g
       id="g1519"
       transform="rotate(-83.694856,127.64644,128)">
      <path
         style="display:inline;fill:#ffffff;fill-opacity:1;stroke:none;stroke-width:0.610986px;stroke-linecap:butt;stroke-linejoin:miter;stroke-opacity:1"
         d="m 48.021441,178.52292 -2.317451,1.30971 -1.568179,-2.77477 -3.411916,1.92825 0.638452,1.12971 a 1.8329585,1.8329585 0 0 1 -0.693918,2.49759 l -4.442495,2.51069 a 1.8329602,1.8329602 0 0 1 -2.497595,-0.69391 l -2.027619,-3.58774 2.326873,-1.31504 1.583334,2.80161 2.973488,-1.68048 -0.6185,-1.09441 a 1.8329583,1.8329583 0 0 1 0.69391,-2.49756 l 4.90576,-2.7725 a 1.8329589,1.8329589 0 0 1 2.497594,0.69391 l 1.992501,3.5256 z"
         id="path1025-2" />
      <path
         style="display:inline;fill:#ffffff;fill-opacity:1;stroke:none;stroke-width:0.609463px;stroke-linecap:butt;stroke-linejoin:miter;stroke-opacity:1"
         d="m 52.22158,184.57325 -2.171684,1.51492 -1.603753,-2.29909 -2.949141,2.05724 1.609066,2.3067 -2.177292,1.51884 -1.63145,-2.33871 -3.150414,2.19764 1.644816,2.35791 -2.163083,1.50888 -2.119824,-3.03886 a 1.8283893,1.8283893 0 0 1 0.453507,-2.54565 l 9.612435,-6.70538 a 1.8283876,1.8283876 0 0 1 2.545651,0.4535 z"
         id="path1006-7" />
      <path
         style="display:inline;fill:#ffffff;fill-opacity:1;stroke:none;stroke-width:0.612191px;stroke-linecap:butt;stroke-linejoin:miter;stroke-opacity:1"
         d="m 55.015731,192.29481 -1.816635,-2.18234 -7.756996,6.45715 1.803859,2.16698 -2.036516,1.69526 -2.358875,-2.83371 a 1.8365731,1.8365731 0 0 1 0.236534,-2.58653 l 9.029867,-7.51671 a 1.8365732,1.8365732 0 0 1 2.586513,0.23656 l 2.371649,2.84907 z"
         id="path1028-6" />
      <path
         style="display:inline;fill:#ffffff;fill-opacity:1;stroke:none;stroke-width:0.608854px;stroke-linecap:butt;stroke-linejoin:miter;stroke-opacity:1"
         d="m 52.724774,204.41792 -1.214805,-1.22073 9.011478,-8.96797 -1.918673,-1.92798 -9.57817,9.53192 a 1.8265579,1.8265579 0 0 0 -0.0062,2.58314 l 2.441222,2.45308 a 1.8265579,1.8265579 0 0 0 2.583136,0.006 l 9.580569,-9.53432 -1.884625,-1.89378 z"
         id="path984-7" />
      <path
         id="path990-4-3"
         style="display:inline;fill:#ffffff;fill-opacity:1;stroke:none;stroke-width:0.610527px;stroke-linecap:butt;stroke-linejoin:miter;stroke-opacity:1"
         d="m 69.37751,202.14644 -4.076593,-3.4661 -9.97021,11.72379 2.094879,1.78109 4.193452,-4.93126 1.330741,1.13202 -4.184403,4.92003 2.046109,1.74048 3.841355,-4.51788 a 1.8306445,1.8306445 0 0 0 -0.20956,-2.5811 l -0.683455,-0.58051 0.684549,0.58148 a 1.8324134,1.8324134 0 0 0 2.582342,-0.20961 l 2.55989,-3.01083 a 1.8315259,1.8315259 0 0 0 -0.209005,-2.58177 z m -2.393736,1.5025 -2.342757,2.6807 -1.289144,-1.12624 2.34275,-2.68071 z" />
      <path
         style="display:inline;fill:#ffffff;fill-opacity:1;stroke:none;stroke-width:0.610257px;stroke-linecap:butt;stroke-linejoin:miter;stroke-opacity:1"
         d="m 74.886683,206.19625 -8.512639,12.78858 -2.279587,-1.51739 8.512641,-12.78859 z"
         id="path994-9" />
      <path
         style="display:inline;fill:#ffffff;fill-opacity:1;stroke:none;stroke-width:0.608815px;stroke-linecap:butt;stroke-linejoin:miter;stroke-opacity:1"
         d="m 81.579101,213.47814 -1.781005,-1.04331 -6.442082,10.99708 -2.352402,-1.37803 6.430594,-10.97747 -1.920243,-1.12489 1.348478,-2.30193 6.05365,3.54623 z"
         id="path988-2" />
      <path
         style="display:inline;fill:#ffffff;fill-opacity:1;stroke:none;stroke-width:0.611733px;stroke-linecap:butt;stroke-linejoin:miter;stroke-opacity:1"
         d="m 85.242053,212.326 2.486531,1.14883 c -1.040064,2.34353 -2.112345,5.05645 -2.311767,7.28933 1.672546,-1.78923 2.890837,-4.44656 3.893951,-6.60845 l 2.484083,1.07833 c -1.086942,2.80075 -2.409692,4.96135 -3.878892,6.54113 -0.719457,0.7736 -1.424807,1.35647 -2.259109,1.88601 l -2.090045,4.74327 -2.476995,-1.1048 2.081553,-4.7109 c -0.169448,-0.84939 -0.22946,-1.87421 -0.163725,-2.84011 0.139684,-2.05401 0.77842,-4.2797 2.234415,-7.42264 z"
         id="path1246-7" />
    </g>
  </g>
  <g
     id="layer6"
     style="display:inline;opacity:0.995">
    <path
       style="font-variation-settings:normal;display:inline;vector-effect:none;fill:#bdbdc0;fill-opacity:0.996078;stroke:none;stroke-width:0.0298462;stroke-linecap:butt;stroke-linejoin:miter;stroke-miterlimit:4;stroke-dasharray:none;stroke-dashoffset:0;stroke-opacity:1;paint-order:markers fill stroke;stop-color:#000000"
       d="m 142.5796,167.64269 c -1.20748,0.0126 -8.38227,-0.0589 -10.03295,-0.0614 -2.02312,-0.003 -2.53489,0.17549 -4.0936,-2.24908 0.50195,0.48809 1.38498,0.8686 2.46383,0.85208 1.07884,-0.0165 7.42568,0.0954 11.52336,0.0969 2.88876,0.001 8.78379,2.54755 8.19623,7.62109 0.22183,-3.2043 -4.78766,-6.24207 -8.05687,-6.25964 -2e-5,0 2e-5,5e-5 0,5e-5 z"
       id="path3417-3" />
    <path
       id="path1885"
       style="fill:#bdbdc0;fill-opacity:0.996078;stroke-width:0.675342"
       d="M 127.83789,45 C 114.35243,45.249522 96.958451,58.358868 86.583984,73.195313 L 62.607422,47.72461 l 9.935547,74.12891 0.58789,0.28906 c -0.09477,0.93083 -0.05901,1.59931 0.08203,2.36718 -7.595316,9.83138 -15.183129,19.65583 -17.083985,24.93165 L 55,150.58203 l 0.675781,14.5332 0.210938,0.54493 c 0.06763,0.17534 3.779903,9.86094 12.078125,21.70312 8.298221,11.84218 21.337453,26.10495 40.226566,35.50586 0.37197,0.24278 0.69715,0.48555 1.04882,0.71484 l 2.52149,1.65821 c 0.48693,0.53951 1.01498,1.11268 1.58984,1.71289 3.61536,3.8551 7.63476,7.31319 11.99024,10.3125 l 2.65234,1.73242 0.006,-0.004 0.006,0.004 2.65234,-1.73242 c 4.35548,-2.99931 8.37488,-6.4574 11.99024,-10.3125 0.57486,-0.60021 1.10291,-1.17338 1.58984,-1.71289 l 2.52149,-1.65821 c 0.35167,-0.22929 0.67685,-0.47206 1.04882,-0.71484 18.88911,-9.40091 31.92834,-23.66368 40.22657,-35.50586 8.29822,-11.84218 12.01052,-21.52778 12.07812,-21.70312 l 0.21094,-0.54493 0.67578,-14.5332 -1.12891,-1.14062 c -1.90086,-5.27582 -9.48866,-15.10027 -17.08398,-24.93165 0.141,-0.76787 0.17683,-1.43635 0.082,-2.36718 l 0.58789,-0.28906 9.93555,-74.12891 -23.97656,25.470703 C 159.04155,58.358868 141.64757,45.249522 128.16211,45 H 128 Z" />
    <path
       style="fill:#0d3378;fill-opacity:0.996078;stroke:none;stroke-width:1px;stroke-linecap:butt;stroke-linejoin:miter;stroke-opacity:1"
       d="m 133,77 46.75,75.75 -23.75,52 -29.75,-0.25 -10.25,-37 10.56066,8.08148 L 121.75,74 Z"
       id="path3384" />
    <path
       class="cls-1"
       d="m 147.08523,173.47716 -4.91671,-0.73508 a 53.042338,52.891925 0 0 1 -14.47962,2.21198 c -6.37076,0 -2.61052,-3.37192 -1.20382,-4.44419 l 21.24264,0.0809 z"
       id="path1883"
       style="stroke-width:0.675342" />
    <path
       class="cls-3"
       d="m 127.9459,234.37402 c -4.26596,-2.95034 -8.20806,-6.34101 -11.76089,-10.11576 -1.81859,-1.91709 -3.53861,-3.92483 -5.15342,-6.0155 v 1.83432 c -0.27052,-0.18208 -0.53428,-0.37091 -0.79803,-0.56648 -18.300727,-9.01651 -30.967857,-22.82115 -39.036135,-34.3666 -3.304662,-4.70106 -6.26334,-9.63474 -8.852789,-14.76227 -1.758384,-3.50005 -2.64434,-5.75249 -2.759311,-6.06945 l -0.56133,-12.21309 c 5.275153,-5.23996 17.692051,-8.00494 17.71234,-8.01168 h 0.162312 c 0.09185,-1.08383 0.09185,-2.17345 0,-3.25728 -0.0918,-0.75224 -0.23186,-1.49784 -0.419307,-2.23221 -0.216416,-0.93739 -0.480174,-2.02315 -0.676301,-3.06844 -0.480174,-2.18501 -0.757458,-4.04631 -0.371966,-4.60604 0.162312,-0.22255 0.432833,-0.53277 0.770984,-0.90368 l 1.197054,-1.29481 0.08116,-0.0809 v -0.11465 c -0.490133,-2.81564 -0.560779,-5.688 -0.209654,-8.52421 v -0.17534 l -0.155549,-0.0674 -0.676302,-0.31021 -0.311098,-0.15511 -8.020938,-60.020162 16.907541,17.911635 -0.967111,7.182188 0.432833,0.121389 C 92.77821,66.567088 113.80443,49.120778 127.84445,48.864512 H 128 V 179.05062 c 1.35826,-0.0903 23.6271,4.60063 23.05329,5.68253 -5.21803,9.83845 -18.8868,46.82182 -23.10749,49.64085 z"
       id="path1887"
       style="stroke-width:0.675342" />
    <path
       class="cls-4"
       d="m 139.14874,127.92253 -3.30036,9.44137 c 0,0 9.77256,6.15713 10.39476,5.82668 0.6222,-0.33045 8.48082,-4.12049 8.48082,-4.12049 l 1.35261,-4.41721 -2.92839,-1.20715 -3.21243,-3.79004 v -2.98077 z"
       id="path1889"
       style="stroke-width:0.675342" />
    <path
       class="cls-4"
       d="m 117.60524,127.92253 3.30036,9.44137 c 0,0 -9.77256,6.15713 -10.40152,5.82668 -0.62896,-0.33045 -8.48083,-4.12049 -8.48083,-4.12049 l -1.3526,-4.41721 2.92162,-1.20715 3.2192,-3.79004 v -2.98077 z"
       id="path1891"
       style="stroke-width:0.675342" />
    <path
       class="cls-5"
       d="m 113.01992,139.2252 a 14.716324,14.674592 0 0 0 -11.56476,-3.72934 l 0.0676,-1.76689 c 0,0 7.75718,-1.63201 7.68955,-1.9692 -0.0676,-0.33719 -1.16324,-4.40372 -1.16324,-4.40372 l 10.14453,1.02506 1.76514,8.76699 -3.95636,2.02315 z"
       id="path1893"
       style="stroke-width:0.675342" />
    <path
       id="path1027"
       style="opacity:0.995;fill:#a1765e;fill-opacity:1;stroke-width:0.675342"
       d="m 94.136719,125.66211 c -1.312026,1.40946 -3.657353,4.22965 -3.035157,5.81445 a 4.1795442,4.1676921 0 0 0 1.175782,1.59766 l -1.203125,0.89648 -0.142578,2.11914 -1.966797,1.60352 -2.707032,11.97852 2.429688,14.35742 5.457031,6.81836 3.083985,-0.54102 7.994144,-11.51758 c 0,0 10.30027,-9.41553 10.43554,-9.52344 0.13526,-0.10791 3.51563,-0.72656 3.51563,-0.72656 l 0.85351,0.77539 1.14258,1.26758 0.59375,1.39453 c 0,0 0.0349,-5.18472 -4.42187,-5.26562 -4.45683,-0.0809 -16.31329,7.92371 -20.371097,17.7832 0,0 -0.161522,-5.03164 -0.107422,-6.91992 0.0541,-1.88827 2.460938,-1.34766 2.460938,-1.34766 a 5.4104132,5.3950707 0 0 0 -1.832031,-5.75976 c -2.982491,-2.31988 -5.30886,-5.15975 -5.876954,-7.56055 -0.223179,-0.93065 0.01971,-2.48709 0.398438,-4.04492 0.520753,-1.67921 1.568751,-3.16406 3.597656,-3.16406 l 0.439453,0.11523 c 0.913007,0.22929 3.733123,6.62856 8.960939,8.46289 5.22781,1.83432 8.94922,0.0488 8.94922,0.0488 l 5.66015,-2.78711 2.29883,-2.39258 -1.18945,-0.5332 3.32617,-2.43555 -2.66992,5.32227 1.5,7.57226 0.8125,3.47461 c 0,0 -0.92681,-13.89479 4.30078,-14.4043 v -5.20507 l 4.69336,4.70507 -0.70898,-1.41601 3.48828,2.21875 2.60351,-8.97656 0.008,-0.0274 c -3.16509,0.22929 -6.47845,0.36524 -9.91406,0.36524 h -0.44726 c -3.12452,-0.007 -6.14163,-0.12279 -9.04297,-0.31836 l 1.94922,9.07031 a 8.3590884,8.3353843 0 0 0 -1.15625,-0.46484 c -0.18261,0 -3.15821,1.96875 -3.15821,1.96875 l -2.1582,0.27734 a 66.439874,66.251468 0 0 1 -7.12109,-0.45898 c -2.76607,-0.41137 -6.02539,-4.20703 -6.02539,-4.20703 l -1.35352,-1.93555 7.01953,-1.45703 -4.40234,-4.72071 -2.08985,0.82813 0.59571,-1.24024 c -2.36706,-0.46533 -4.613677,-0.97184 -6.642581,-1.48437 z m 67.597661,0.0215 c -2.06273,0.51253 -4.28138,1.01125 -6.64844,1.47657 l 0.56054,1.17382 -1.94726,-0.77539 -4.41016,4.72071 7.02149,1.45703 -1.35352,1.93555 c 0,-1e-5 -1.25838,1.46506 -2.875,2.67382 l 5.86719,-0.0996 c 0.9592,-1.32241 1.61026,-2.3504 1.96484,-2.43945 l 0.4336,-0.10937 c 1.80152,-0.0487 2.83359,1.05934 3.42578,2.45117 l 3.37304,-0.0566 -0.0898,-0.39844 -1.94141,-1.58398 -0.14257,-2.13868 L 163.66797,133 a 4.0578099,4.046303 0 0 0 1.08984,-1.52344 c 0.6222,-1.57806 -1.70465,-4.37676 -3.02343,-5.79297 z m -34.35743,7.89063 0.55469,0.3164 0.008,0.46485 -2.70507,0.88476 z m 9.11719,4.51758 c -0.0938,0 -0.7186,0.26893 -1.32031,0.53711 l 2.19726,-0.0371 c -0.44346,-0.27558 -0.81833,-0.5 -0.87695,-0.5 z m -18.83398,11.12695 -1.35352,1.24805 -0.81055,1.92968 -0.77929,3.8086 2.42187,1.07226 3.96289,2.02344 4.63867,2.94141 1.02149,0.0469 h 1.18359 1.17774 1.02148 l 4.63867,-2.9414 3.96289,-2.02149 2.42774,-1.07226 -0.78321,-3.81055 -0.8125,-1.92969 -1.35156,-1.24805 -1.64453,0.24415 c 2.03567,-0.1079 1.9082,5.20507 1.9082,5.20507 a 6.4992589,6.4808287 0 0 0 -3.18554,-0.53125 c -1.75839,0.13488 -5.96634,4.91569 -7.37305,5.32032 -1.41347,-0.40463 -5.61857,-5.18544 -7.37695,-5.32032 a 6.5263109,6.5078041 0 0 0 -3.18555,0.53125 c 0,0 -0.0953,-5.34635 1.93359,-5.25195 z m 23.28711,0.56641 c 0.051,0.0446 0.36542,0.33317 0.44726,0.40625 l -0.32422,-0.37696 z" />
    <path
       class="cls-5"
       d="m 142.98008,139.2252 a 14.723087,14.681336 0 0 1 11.56476,-3.72934 l -0.0676,-1.76689 c 0,0 -7.75042,-1.63201 -7.68279,-1.9692 0.0676,-0.33719 1.16324,-4.40372 1.16324,-4.40372 l -10.14452,1.02506 -1.77191,8.76699 3.96312,2.02315 z"
       id="path1895"
       style="stroke-width:0.675342" />
    <path
       class="cls-4"
       d="m 89.389939,175.66216 8.589031,10.24389 5.36307,2.28616 4.42301,4.5993 5.05874,2.57615 c 0,0 7.80452,-3.37192 15.45349,-3.51354 7.64898,-0.14162 14.7028,3.66864 14.7028,3.66864 l 8.88661,-6.24479 4.90995,-2.62335 11.17926,-14.02044 -2.47526,10.65526 -4.27423,13.76418 -9.94163,14.83644 -9.37354,6.58199 -13.76274,12.33448 -12.26135,-10.35854 -4.57856,-4.59255 -7.98713,-4.86231 -5.478039,-7.96447 -7.344636,-17.88466 z"
       id="path1897"
       style="stroke-width:0.675342" />
    <path
       class="cls-5"
       d="m 146.79442,131.75977 c 0.0676,-0.33719 1.16324,-4.40372 1.16324,-4.40372 l -10.14452,1.02506 -1.77191,8.76699 3.96312,2.02315 c 0,0 6.72244,-7.07429 6.79007,-7.41148 z"
       id="path1899"
       style="stroke-width:0.675342" />
    <path
       class="cls-4"
       d="m 121.50016,166.16675 -10.73233,4.28913 -3.3274,5.71877 -3.47619,12.86725 c 0,0 -3.67232,-1.01158 -3.88197,-1.1532 -0.209655,-0.14162 -6.763018,-10.58108 -6.763018,-10.58108 l 4.152492,-7.1215 12.105796,-14.59366 5.41042,1.07901 z"
       id="path1901"
       style="stroke-width:0.675342" />
    <path
       class="cls-5"
       d="m 113.62859,156.39501 c 3.18538,2.17152 4.98434,6.3527 4.98434,6.3527 0,0 -8.90689,0.63392 -14.87863,5.65134 -5.971747,5.01741 1.63665,25.168 1.63665,25.168 l 1.75838,-16.71123 4.91671,-7.89704 12.84974,-0.95088 2.92162,-1.75339 0.58162,-2.74475 c 0,0 -4.35538,-2.69753 -4.56504,-2.80543 -0.20965,-0.1079 -7.79776,-3.60121 -7.79776,-3.60121 l -2.32647,-1.2611 z"
       id="path1903"
       style="stroke-width:0.675342" />
    <path
       class="cls-6"
       d="m 127.86474,51.211367 h 0.28405 c 16.44765,0.303473 44.4533,27.224876 44.4533,47.476623 0,14.16206 -44.46683,16.42125 -44.46683,16.42125 h -0.25699 c 0,0 -44.466838,-2.29291 -44.466838,-16.42125 0,-20.251747 28.005648,-47.17315 44.453308,-47.476623 z"
       id="path1923"
       style="fill:#ffffff;fill-opacity:0.996078;stroke-width:0.675342" />
    <path
       id="path1923-2"
       style="display:inline;opacity:0.996;fill:#bdbdc0;fill-opacity:0.996078;stroke-width:0.675342"
       d="m 128.37845,115.10938 h -0.24368 c 0,-1e-5 42.46723,-2.25982 42.46723,-16.42188 0,-15.010944 -13.38592,-32.525937 -28.04731,-41.309935 1.31216,2.598419 1.99959,4.358194 2,7.313841 6e-5,9.811065 -7.40931,17.764348 -16.54883,17.763672 z" />
    <path
       class="cls-7"
       d="m 78.366222,117.70561 -0.520752,-3.91142 a 90.874653,90.616957 0 0 0 12.613026,4.31605 129.44414,129.07707 0 0 1 -12.849732,-6.34595 l -6.086715,-45.419749 10.874931,11.572427 -2.610524,20.824973 1.251158,0.4923 a 139.90652,139.50978 0 0 0 36.263296,8.092609 l 2.90133,0.24278 -11.93672,-28.539929 19.74124,-14.836445 19.74125,14.836445 -11.93673,28.506209 2.90134,-0.24278 a 139.90652,139.50978 0 0 0 36.26329,-8.092608 l 1.25116,-0.492301 -2.61052,-20.791253 10.88845,-11.552196 -6.08671,45.460218 a 128.44321,128.07898 0 0 1 -12.84973,6.30548 91.016676,90.758577 0 0 0 12.55216,-4.28233 l -0.47342,3.85747 a 98.273393,97.994716 0 0 1 -12.92412,4.51163 137.43802,137.04828 0 0 1 -36.52029,5.01067 h -0.4396 a 136.81582,136.42785 0 0 1 -36.520285,-5.01067 99.159348,98.878159 0 0 1 -12.876783,-4.51163 z"
       id="path1925"
       style="stroke-width:0.675342" />
    <path
       class="cls-4"
       d="m 138.2595,146.37367 c 0,0 5.10607,0.31696 10.53001,4.78138 5.42394,4.46442 7.21614,7.10801 7.21614,7.10801 0,0 -3.30711,-6.64268 -9.9484,-9.92693 -5.95821,-2.94706 -7.79775,-1.96246 -7.79775,-1.96246 z"
       id="path1929"
       style="fill:#a1765e;fill-opacity:0.996078;stroke-width:0.675342" />
    <path
       class="cls-4"
       d="m 117.72698,146.37367 c 0,0 -5.10608,0.31696 -10.53002,4.78138 -5.42394,4.46442 -7.216137,7.10801 -7.216137,7.10801 0,0 3.300347,-6.64268 9.948397,-9.92693 5.95822,-2.94706 7.79776,-1.96246 7.79776,-1.96246 z"
       id="path1931"
       style="stroke-width:0.675342" />
    <path
       class="cls-9"
       d="m 140.45071,81.005646 -12.44395,-9.340217 v -7.472173 l 19.74125,14.836445 -11.93673,28.506209 -1.3526,3.20332 a 146.75746,146.34129 0 0 0 21.46582,-3.14937 169.14304,168.6634 0 0 0 17.96257,-5.03765 l 2.21827,-3.729343 0.12173,-0.04721 -0.0609,-0.465325 0.36521,-19.354816 7.81804,-12.395175 0.15555,-0.168596 -6.08671,45.460215 a 128.44321,128.07898 0 0 1 -12.84973,6.30549 91.016676,90.758577 0 0 0 12.55216,-4.28234 l -0.47342,3.8305 a 98.273393,97.994716 0 0 1 -12.92412,4.51163 137.43802,137.04828 0 0 1 -36.52029,5.01067 l -0.0473,-16.7989 z"
       id="path1933"
       style="stroke-width:0.675342" />
    <polygon
       class="cls-9"
       points="151,107.64 132.6,63.58 151,49.71 "
       id="polygon1935"
       transform="matrix(0.67630165,0,0,0.67438384,25.885214,38.128321)" />
    <polygon
       class="cls-1"
       points="151,90.89 140.49,65.71 151,57.79 161.51,65.71 "
       id="polygon1937"
       transform="matrix(0.67630165,0,0,0.67438384,25.885214,38.128321)"
       style="fill:#0b3278;fill-opacity:0.996078" />
    <path
       class="cls-9"
       d="m 178.17482,113.76721 -0.52752,3.9384 a 98.273393,97.994716 0 0 1 -12.92412,4.51163 137.43802,137.04828 0 0 1 -36.52029,5.01067 h -0.4396 a 136.81582,136.42785 0 0 1 -36.520285,-5.01067 99.159348,98.878159 0 0 1 -12.849731,-4.50488 l -0.527515,-3.95189 a 101.72929,101.44082 0 0 0 12.66713,4.39698 139.47369,139.07818 0 0 0 37.196591,5.11183 h 0.44636 a 140.15675,139.75931 0 0 0 37.27775,-5.11183 103.71762,103.42351 0 0 0 12.72123,-4.39024 z"
       id="path1939"
       style="stroke-width:0.675342" />
    <polygon
       class="cls-6"
       points="79.09,60.49 67.48,42.01 67.53,41.94 83.56,58.99 79.74,89.58 79.64,89.7 "
       id="polygon1941"
       transform="matrix(0.67630165,0,0,0.67438384,25.885214,38.128321)" />
    <path
       class="cls-4"
       d="m 151.9546,145.80719 c 5.33602,-1.80061 7.83834,-7.04057 7.83834,-7.04057 0,0 -0.41254,3.02124 -2.25208,4.79487 -1.83954,1.77363 -5.58626,2.2457 -5.58626,2.2457 z"
       id="path1943"
       style="fill:#a0755d;fill-opacity:0.996078;stroke-width:0.675342" />
    <path
       class="cls-4"
       d="m 104.24152,145.80719 c -5.336017,-1.83433 -7.824807,-7.04057 -7.824807,-7.04057 0,0 0.412544,3.02124 2.252085,4.79487 1.839542,1.77363 5.572722,2.2457 5.572722,2.2457 z"
       id="path1945"
       style="stroke-width:0.675342" />
    <polygon
       class="cls-6"
       points="161.26,65.52 169.14,63.38 169.4,63.58 151,107.64 151,90.89 161.51,65.71 "
       id="polygon1951"
       transform="matrix(0.67630165,0,0,0.67438384,25.885214,38.128321)" />
    <path
       class="cls-6"
       d="m 110.75431,79.508513 c 0.41254,1.557827 9.46822,28.027397 9.46822,28.027397 L 108.26552,79.029701 128.00676,64.193256 Z"
       id="path1953"
       style="stroke-width:0.675342" />
    <polygon
       class="cls-4"
       points="135.17,193.73 142.15,193.81 147.29,192.34 150.87,190.46 154.26,192.5 154.96,204.85 151.91,205.02 146.16,204.85 137.35,202.4 130.12,199.79 132.1,193.99 "
       id="polygon1955"
       transform="matrix(0.67630165,0,0,0.67438384,25.885214,38.128321)" />
    <path
       class="cls-6"
       d="m 79.847323,98.762172 1.190291,0.472069 a 139.90652,139.50978 0 0 0 36.263296,8.092609 l 2.85399,0.24278 1.3526,3.20332 a 148.99602,148.5735 0 0 1 -20.59338,-2.9538 l 0.30433,12.91445 -1.03474,-0.20906 -0.317859,-12.94143 -1.217342,-0.28324 0.324624,12.97515 c -2.367055,-0.49905 -4.578562,-1.03181 -6.607467,-1.57132 l -0.324625,-13.13699 c -4.734111,-1.27459 -8.034463,-2.36035 -10.063368,-3.0752 l -2.143876,-3.621437 z"
       id="path1957"
       style="stroke-width:0.675342" />
    <path
       class="cls-4"
       d="m 111.87697,179.91752 h 3.12451 l 14.20234,3.74958 -1.00093,3.53377 -6.95914,0.1079 c 0,0 -5.53891,0.60694 -5.89059,0.60694 h -3.00954 l -0.94683,-0.82274 a 6.6683343,6.6494247 0 0 1 -0.82508,-2.76498 23.501482,23.434838 0 0 1 0.94682,-4.41047 z"
       id="path1959"
       style="stroke-width:0.675342" />
    <path
       class="cls-8"
       d="m 146.62535,184.23358 a 4.9843432,4.9702089 0 0 1 -0.24347,1.91525 1.6704651,1.6657281 0 0 1 -1.54873,1.07227 l -0.11497,-5.85365 -1.89365,-3.65516 -1.03474,-5.04439 -1.56226,-4.08003 4.19984,-0.0539 c 0,0 4.82203,17.45306 4.82203,17.66212 0,0.20905 0.57485,4.40372 0.57485,4.72068 0,0.31696 -2.7052,3.91817 -2.7052,3.91817 0,0 -7.57458,-1.28807 -8.03447,-1.34876 -0.45988,-0.0607 -9.53585,-0.91042 -11.17926,-1.05204 -1.63665,0.14162 -10.7532,1.00483 -11.17251,1.05204 -0.4193,0.0472 -8.03446,1.34876 -8.03446,1.34876 0,0 -2.70521,-3.59446 -2.70521,-3.91817 0,-0.3237 0.57486,-4.51163 0.57486,-4.72068 0,-0.20906 4.82203,-17.66212 4.82203,-17.66212 l 4.05781,-0.0809 -1.40671,4.2149 -1.03474,5.05787 -1.90717,3.64168 -0.11497,5.85365 a 1.6704651,1.6657281 0 0 1 -1.54873,-1.07227 4.9843432,4.9702089 0 0 1 -0.24347,-1.91525 c 0,0 -1.02121,3.20332 1.90717,4.65325 2.92839,1.44992 10.92227,0 17.17806,0 a 8.2508801,8.2274828 0 0 1 1.81926,0.15511 c 5.70798,0.27649 12.13285,1.0925 14.60811,-0.13488 2.91486,-1.47016 1.9207,-4.67348 1.9207,-4.67348 z"
       id="path1961"
       style="fill:#0c3379;fill-opacity:0.996078;stroke-width:0.675342" />
    <polygon
       class="cls-4"
       points="171.35,199.79 164.11,202.4 155.31,204.85 149.55,205.02 146.5,204.85 147.2,192.5 150.6,190.46 154.17,192.34 159.31,193.81 166.29,193.73 170.38,193.9 "
       id="polygon1963"
       transform="matrix(0.67630165,0,0,0.67438384,25.885214,38.128321)" />
    <path
       class="cls-5"
       d="m 114.76478,169.99734 -0.25023,-1.2611 3.00954,-0.0539 5.25486,0.50579 c 0,0 3.02307,-1.47016 3.18538,-1.53086 0.16231,-0.0607 1.95451,-0.95762 1.95451,-0.95762 l -0.0338,4.91626 c 0,0 -1.06179,-1.53085 -1.67047,-1.34877 -0.60867,0.18208 -2.34,0.0877 -4.84232,-0.12139 -2.50231,-0.20906 -6.60746,-0.14836 -6.60746,-0.14836 z"
       id="path1965"
       style="stroke-width:0.675342" />
    <path
       class="cls-5"
       d="m 140.94441,169.99734 c 0,0 -4.10515,0 -6.60746,0.17534 -2.50232,0.17534 -4.23365,0.33044 -4.84232,0.12138 -0.60867,-0.20905 -1.67047,1.34877 -1.67047,1.34877 v -4.91626 c 0,0 1.79896,0.89693 1.96128,0.95763 0.16231,0.0607 3.17861,1.53085 3.17861,1.53085 l 5.26163,-0.50579 3.00954,0.0539 z"
       id="path1967"
       style="stroke-width:0.675342" />
    <path
       class="cls-4"
       d="m 143.77135,179.91752 h 0.35168 a 23.501482,23.434838 0 0 1 0.94682,4.41047 6.6683343,6.6494247 0 0 1 -0.82508,2.76498 l -0.94683,0.82274 h -3.00278 c -0.35844,0 -5.89735,-0.60694 -5.89735,-0.60694 l -6.95914,-0.1079 -1.00093,-3.53377 14.20234,-3.74958 z"
       id="path1969"
       style="stroke-width:0.675342" />
    <path
       class="cls-5"
       d="m 128.16231,185.98698 c 9.24505,0 12.80916,0.86321 13.93182,0.83623 1.12266,-0.027 -0.9333,-4.41721 -1.22411,-4.88928 -0.29081,-0.47207 0.56133,-1.59829 0.56133,-1.59829 l 2.93515,-0.2765 0.6763,3.77655 -0.29757,3.41238 -1.64341,0.74857 -7.76395,-0.35742 -7.80452,-0.1686 -0.11497,-0.67438 0.54781,-0.79578 z"
       id="path1971"
       style="stroke-width:0.675342" />
    <path
       class="cls-2"
       d="m 127.8174,224.48081 c 1.77191,-2.43453 17.86789,-25.23545 0,-25.36358 -17.86789,0.12813 -1.77191,22.92905 0,25.36358 z m -37.582084,-47.20687 0.676302,-10.30459 6.661571,15.9829 2.177691,4.72069 a 14.878636,14.836444 0 0 1 2.88781,0.67438 c 0.15555,0.22929 9.94163,8.00494 9.94163,8.00494 l 10.65852,-3.51354 c 0.12173,0 2.37382,0.0809 4.58532,0.20906 2.21151,-0.12814 4.47036,-0.24278 4.58533,-0.20906 l 10.65851,3.51354 c 0,0 9.78609,-7.77565 9.94164,-8.00494 0.15554,-0.22929 3.05012,-0.67438 3.3815,-0.7688 1.39318,-3.8305 7.19585,-19.75944 7.19585,-20.17756 l 2.38058,0.35742 1.1903,9.49533 -1.12943,2.24569 -1.37965,7.66775 -5.97851,13.83161 -10.37447,14.99155 -20.28905,15.79407 v 0.23604 l -0.15555,-0.12139 -0.15555,0.12139 v -0.23604 L 107.40661,215.99031 96.964517,201.02574 90.992774,187.16715 88.916528,175.8375 Z"
       id="path1973"
       style="stroke-width:0.675342" />
    <path
       class="cls-5"
       d="m 127.76329,185.98698 h 0.79804 l -0.0609,0.80251 -0.11497,0.67439 -7.81804,0.17534 -7.76395,0.35742 -1.64341,-0.74857 -0.29757,-3.41238 0.6763,-3.77655 2.93515,0.2765 c 0,0 0.8589,1.12622 0.56133,1.59829 -0.29758,0.47207 -2.3603,4.85556 -1.23087,4.88928 1.12942,0.0337 4.73411,-0.83623 13.95886,-0.83623 z"
       id="path1975"
       style="stroke-width:0.675342" />
    <path
       id="polygon1909-1"
       style="font-variation-settings:normal;display:inline;vector-effect:none;fill:#bdbdc0;fill-opacity:0.996078;fill-rule:evenodd;stroke-width:0.675342;stroke-linecap:butt;stroke-linejoin:miter;stroke-miterlimit:4;stroke-dasharray:none;stroke-dashoffset:0;stroke-opacity:1;stop-color:#000000"
       d="m 178.56055,118.67578 v 3.93945 l -0.26759,4.9961 9.7207,9.125 6.56446,14.78711 1.39648,0.73047 -0.87305,11.68164 -5.32812,10.12109 -9.92188,14.51953 -16.26563,16.35352 -10.28515,7.78906 7.48632,-15.39453 4.77541,-12.41016 2.84959,-20.63867 c -1.2486,-8.76819 -8.7082,-20.76695 -42.16209,-34.4707 12.88965,-0.0135 26.47163,-1.75757 38.666,-5.00391 l -0.0449,-0.2168 z" />
    <path
       id="polygon1909"
       style="font-variation-settings:normal;vector-effect:none;fill:#ffffff;fill-opacity:0.996078;fill-rule:evenodd;stroke-width:0.675342;stroke-linecap:butt;stroke-linejoin:miter;stroke-miterlimit:4;stroke-dasharray:none;stroke-dashoffset:0;stroke-opacity:1;stop-color:#000000"
       d="m 77.689453,118.67578 v 3.93945 l 0.267578,4.9961 -9.720703,9.125 -6.564453,14.78711 -1.396484,0.73047 0.873047,11.68164 5.328124,10.12109 9.921876,14.51953 16.265624,16.35352 10.285158,7.78906 L 95.462891,197.32422 90.6875,184.91406 87.837891,164.27539 C 89.086496,155.5072 96.546106,143.50844 130,129.80469 c -12.88965,-0.0135 -26.47164,-1.75757 -38.666016,-5.00391 l 0.04492,-0.2168 z" />
    <path
       style="fill:#ffffff;fill-opacity:0.996078;stroke:none;stroke-width:1px;stroke-linecap:butt;stroke-linejoin:miter;stroke-opacity:1"
       d="M 177.99816,132.93306 182,130.5 l 14.125,21.25 -0.5,13.125 -15.5,22.5 c 3.9068,-8.04906 9.07006,-15.26049 12.40901,-23.70895 0.47741,-3.12204 0.74496,-6.80657 0.54366,-9.92861 -4.66951,-7.29179 -9.26716,-14.65544 -15.07951,-20.80438 z"
       id="path3361" />
    <polygon
       class="cls-1"
       points="161.51,65.71 151,90.89 140.49,65.71 151,57.79 "
       id="polygon1937-5"
       transform="matrix(0.36584142,0,0,0.364804,72.764704,59.816661)"
       style="display:inline;opacity:0.996;fill:#ffffff;fill-opacity:0.996078" />
    <path
       style="font-variation-settings:normal;vector-effect:none;fill:#bdbdc0;fill-opacity:0.996078;stroke:none;stroke-width:0.0422089;stroke-linecap:butt;stroke-linejoin:miter;stroke-miterlimit:4;stroke-dasharray:none;stroke-dashoffset:0;stroke-opacity:1;paint-order:markers fill stroke;stop-color:#000000"
       d="m 152.26523,188.02977 c 0,-0.0769 0.12581,-0.60895 0.27959,-1.18229 0.75979,-2.83288 1.29183,-5.49401 1.60167,-8.01117 0.16307,-1.32476 0.22961,-4.1606 0.12264,-5.2262 -0.22961,-2.28712 -0.92115,-4.04192 -1.98046,-5.02544 -1.51136,-1.40323 -4.02174,-2.85877 -6.71094,-3.89105 -2.43971,-0.93651 -4.9657,-1.54662 -8.0811,-1.95186 l -0.29986,-0.039 0.36824,-0.70109 c 0.73913,-1.40724 1.57504,-2.63183 2.54704,-3.73132 0.62403,-0.70589 1.36054,-1.37153 1.51755,-1.37153 0.14262,0 2.40865,1.25954 4.13563,2.29873 6.96992,4.19405 11.04219,7.91124 11.82622,10.79502 0.11984,0.44078 0.13596,0.65915 0.13608,1.84375 1.3e-4,1.427 -0.0743,2.05397 -0.43356,3.65042 -0.7029,3.12365 -2.57096,8.03734 -4.33858,11.41208 -0.3511,0.67031 -0.65002,1.23047 -0.66426,1.24479 -0.0142,0.0143 -0.0259,-0.0369 -0.0259,-0.11383 z"
       id="path3386" />
    <path
       id="path1961-2"
       style="display:inline;opacity:0.996;fill:#a1765e;fill-opacity:1;stroke-width:0.675342"
       d="m 115.44727,168.4531 -4.05665,0.0801 c 1e-5,0 -4.82226,17.45305 -4.82226,17.66211 0,0.20905 -0.57617,4.39701 -0.57617,4.72071 0,0.32371 2.70703,3.91796 2.70703,3.91796 0,0 7.6139,-1.30045 8.0332,-1.34765 0.41931,-0.0472 9.53718,-0.91112 11.17383,-1.05274 0.30294,0.0261 1.35301,0.12851 2.06055,0.19336 l -4.0918,-0.75197 c -0.78083,-1.08702 -3.19548,-2.43544 -0.125,-2.90625 l 0.11328,-0.0215 c -5.761,0.2577 -12.20133,1.20813 -14.76367,-0.0606 -2.92838,-1.44993 -1.9082,-4.65234 -1.9082,-4.65234 a 4.9843432,4.9702089 0 0 0 0.24414,1.91406 1.6704651,1.6657281 0 0 0 1.54883,1.07226 l 0.11523,-5.85351 1.90625,-3.64063 1.03516,-5.05859 z m 26.12695,0.11719 -1.34766,0.0176 0.76367,1.99609 c 0.18167,-0.69608 0.37638,-1.36521 0.58399,-2.01367 z" />
    <path
       style="display:inline;opacity:0.998;fill:#bdbdc0;fill-opacity:0.996078;stroke:none;stroke-width:1px;stroke-linecap:butt;stroke-linejoin:miter;stroke-opacity:1"
       d="m 163.41321,134.57125 c 1.13741,3.3543 3.23398,7.38325 3.00163,11.15364 -0.16354,2.65375 -3.11288,5.52925 -6.44878,8.24761 1.29046,5.03814 0.57049,10.07627 -0.0884,15.11441 1.12017,-3.29475 3.19442,-6.39565 2.07713,-14.4515 6.03333,-4.99143 6.79231,-8.35227 5.57504,-12.18754 -0.78629,-2.47735 -2.22277,-5.3214 -4.11663,-7.87662 z"
       id="path3499" />
    <path
       id="path1977-2"
       style="display:inline;opacity:0.996;fill:#0e3478;fill-opacity:1;stroke-width:0.675342"
       d="M 127.80664,47.246094 C 114.64581,47.488872 96.433501,61.576656 86.552734,77.34375 l 0.101563,-0.775391 -20.816406,-22.066406 8.791015,65.847657 0.88086,0.43164 c -0.169066,1.73916 -0.247493,2.50067 0.140625,4.46484 -6.07372,8.49963 -12.981886,16.2691 -17.867188,25.8086 l -0.425781,0.42383 0.601562,13.16406 0.08008,0.20898 c 0.02029,0.0607 3.625344,9.51499 11.808594,21.19532 8.18325,11.68032 21.006584,25.67496 39.550782,34.83984 0.37197,0.26301 0.74431,0.52587 1.12304,0.77539 l 2.13672,1.40234 v -0.30273 c 0.66953,0.7688 1.46681,1.65175 2.37305,2.60937 3.50569,3.73439 7.40454,7.08343 11.62695,9.98829 L 128,236.25 l 1.3418,-0.89062 c 4.22241,-2.90486 8.12126,-6.2539 11.62695,-9.98829 0.90624,-0.95762 1.70352,-1.84057 2.37305,-2.60937 v 0.30273 l 2.13672,-1.40234 c 0.37873,-0.24952 0.75107,-0.51238 1.12304,-0.77539 18.5442,-9.16488 31.36753,-23.15953 39.55078,-34.83984 8.18325,-11.68034 11.7883,-21.13462 11.8086,-21.19532 l 0.0801,-0.20898 0.60156,-13.16406 -0.42578,-0.42383 c -4.8853,-9.5395 -11.79347,-17.30897 -17.86719,-25.8086 0.38812,-1.96417 0.30968,-2.72568 0.14062,-4.46484 l 0.88086,-0.43164 8.79102,-65.847657 -20.81641,22.066406 0.10157,0.775391 C 159.5665,61.576656 141.35419,47.488872 128.19336,47.246094 H 128 Z m 0.0605,3.964844 H 128 h 0.13281 c 16.09598,0.296728 43.28269,26.078959 44.41211,46.162109 -8.61034,3.005893 -20.99959,6.561253 -32.9043,7.755863 L 150.98438,78.193359 128,60.929688 105.01562,78.193359 116.35938,105.12891 C 104.45466,103.9343 92.065418,100.37894 83.455078,97.373047 84.584502,77.289897 111.77121,51.507667 127.86719,51.210938 Z M 128,64.201172 l 19.73047,14.828125 -11.93555,28.505863 2.90039,-0.24219 c 12.39485,-1.07766 24.59054,-3.79839 36.26367,-8.091798 l 1.25196,-0.492188 -2.61133,-20.792968 10.88867,-11.558594 -6.08594,45.419918 c -4.16237,2.35045 -8.45402,4.46877 -12.85156,6.34571 4.30467,-1.12873 8.52062,-2.5697 12.61328,-4.31446 l -0.5332,3.89649 c -4.17463,1.79355 -8.46788,3.2997 -12.84961,4.50586 -11.891,3.30545 -24.17711,4.99006 -36.52148,5.00976 H 128 127.74023 c -12.34437,-0.0197 -24.63048,-1.70431 -36.52148,-5.00976 -4.38173,-1.20616 -8.674978,-2.71231 -12.849609,-4.50586 l -0.533203,-3.89649 c 4.092669,1.74476 8.308613,3.18573 12.613281,4.31446 -4.397541,-1.87694 -8.689196,-3.99526 -12.851563,-6.34571 l -6.085937,-45.419918 10.888672,11.558594 -2.611329,20.792968 1.251954,0.492188 c 11.673131,4.293408 23.868824,7.014138 36.263674,8.091798 l 2.90039,0.24219 -11.93555,-28.505863 z M 78.53125,120.61914 h 0.02148 c 0.179688,0.0757 0.476409,0.18403 0.683594,0.26758 14.594018,5.74348 27.411026,8.89984 44.763676,8.91797 -45.87167,19.13639 -38.472801,36.15183 -35.904301,50.68164 1.594481,9.01986 5.643318,16.42684 11.861328,28.78711 -3.212433,-2.25918 -25.016175,-18.25533 -38.109375,-45.67578 0,0 -1.176507,-10.18367 -0.791015,-10.68946 5.267447,-9.72741 11.147104,-18.22862 17.474609,-25.83593 -0.384666,-2.13418 -0.384666,-4.31894 0,-6.45313 z m 98.91602,0 h 0.0215 c 0.38466,2.13419 0.38466,4.31895 0,6.45313 6.3275,7.60731 12.20716,16.10852 17.47461,25.83593 0.38549,0.50579 -0.79102,10.68946 -0.79102,10.68946 -13.0932,27.42045 -34.89694,43.4166 -38.10937,45.67578 6.21801,-12.36027 10.26685,-19.76725 11.86133,-28.78711 2.5685,-14.52981 9.96736,-31.54525 -35.9043,-50.68164 17.35265,-0.0181 30.16965,-3.17449 44.76367,-8.91797 0.20718,-0.0836 0.50391,-0.19188 0.6836,-0.26758 z m -53.03907,11.57617 c 0.21256,0.41833 0.41425,0.84209 0.5918,1.27735 -0.45044,1.14999 -1.27413,2.11573 -2.33984,2.74414 0.62833,-0.87754 0.90526,-1.95667 0.77734,-3.02735 -0.0348,-0.16868 -0.0836,-0.33371 -0.12695,-0.5 0.36538,-0.16459 0.72488,-0.32901 1.09765,-0.49414 z m 7.1836,0 c 0.37277,0.16513 0.73227,0.32955 1.09765,0.49414 -0.0434,0.16629 -0.0922,0.33132 -0.12695,0.5 -0.12792,1.07068 0.14901,2.14981 0.77734,3.02735 -1.06571,-0.62841 -1.8894,-1.59415 -2.33984,-2.74414 0.17755,-0.43526 0.37924,-0.85902 0.5918,-1.27735 z m -9.23047,0.92188 c 0.0102,0.0473 0.0256,0.0932 0.0352,0.14062 0.0399,0.64061 -0.18423,1.26767 -0.61914,1.74024 -0.16176,-0.46578 -0.33393,-0.92788 -0.51367,-1.38672 0.35243,-0.16388 0.73795,-0.32972 1.09766,-0.49414 z m 11.27734,0 c 0.35971,0.16442 0.74523,0.33026 1.09766,0.49414 -0.17974,0.45884 -0.35191,0.92094 -0.51367,1.38672 -0.43491,-0.47257 -0.65904,-1.09963 -0.61914,-1.74024 0.01,-0.0474 0.0249,-0.0933 0.0351,-0.14062 z m -14.91992,1.71679 c -0.0421,0.40922 -0.20488,0.64517 -0.55469,0.5879 -0.10861,-0.0178 -0.24252,-0.0705 -0.38672,-0.13672 0.30359,-0.1499 0.63179,-0.30079 0.94141,-0.45118 z m 18.5625,0 c 0.30962,0.15039 0.63782,0.30128 0.94141,0.45118 -0.1442,0.0662 -0.27811,0.11892 -0.38672,0.13672 -0.34981,0.0573 -0.51259,-0.17868 -0.55469,-0.5879 z m -9.29102,0.17579 0.01,0.0547 0.01,-0.0547 v 0.18359 c 2.11281,0.19593 3.90261,1.63581 4.53906,3.6543 1.19029,3.50679 0.29687,11.30859 0.29687,11.30859 1.36782,-2.78402 2.26744,-5.77282 2.66407,-8.84766 3.65203,3.52703 10.07031,3.86524 10.07031,3.86524 -3.59774,-1.13278 -6.88508,-3.07702 -9.60938,-5.67969 0.58285,0.48596 1.28214,0.81379 2.0293,0.95117 0.10959,0.0196 10.7829,5.01354 10.89249,4.99394 2.90966,0.91349 4.7618,-3.99846 -1.66983,-5.26152 7.07084,4.23643 11.86483,8.24449 15.04101,11.95704 2.70088,3.94136 0.81303,6.58972 -2.07812,17.48046 -6.27608,-12.41541 -17.99402,-22.23747 -21.60547,-22.03515 -3.61145,0.20231 -4.39453,4.4375 -4.39453,4.4375 0,0 1.71791,-2.64944 2.9082,-2.50781 1.19029,0.14162 2.38046,2.79207 2.70508,4.94335 0.32463,2.1513 -1.04242,2.57522 -1.35352,2.4336 -0.3111,-0.14162 -0.89321,-1.50288 -3.125,-0.49805 -2.2318,1.00483 -5.51172,4.4375 -5.51172,4.4375 -0.50442,0.43597 -1.14179,0.68629 -1.80859,0.71289 -0.6668,-0.0266 -1.30417,-0.27692 -1.80859,-0.71289 0,0 -3.27992,-3.43267 -5.51172,-4.4375 -2.23179,-1.00483 -2.8139,0.35643 -3.125,0.49805 -0.3111,0.14162 -1.67815,-0.28231 -1.35352,-2.4336 0.32462,-2.15128 1.51479,-4.80173 2.70508,-4.94335 1.19029,-0.14163 2.9082,2.50781 2.9082,2.50781 0,0 -0.78308,-4.23519 -4.39453,-4.4375 -3.61145,-0.20232 -14.89189,9.30724 -21.167967,21.72265 -1.109344,-4.8659 -1.339805,-9.88974 -0.677734,-14.83593 0.980637,0.41811 1.658203,0.74804 1.658203,0.74804 -0.52593,-0.84986 -1.2847,-1.53243 -2.185547,-1.96875 -0.334825,-0.26344 -0.817218,-0.67461 -1.310547,-1.11132 3.176189,-3.71255 7.970172,-7.72061 15.041012,-11.95704 2.84915,1.08628 5.98292,1.18107 8.89258,0.26758 0.10959,0.0196 0.22049,0.0196 0.33008,0 0.74716,-0.13738 1.44645,-0.46521 2.0293,-0.95117 -2.7243,2.60267 -6.01164,4.54691 -9.60938,5.67969 0,0 6.41828,-0.33821 10.07031,-3.86524 0.39663,3.07484 1.29625,6.06364 2.66407,8.84766 0,0 -0.89342,-7.8018 0.29687,-11.30859 0.63645,-2.01849 2.42625,-3.45837 4.53906,-3.6543 z m -14.87109,2.68554 c 0.31349,0.23083 0.65668,0.49642 0.95313,0.70703 -1.60787,0.97448 -3.41365,1.57935 -5.28516,1.77149 1.36692,-0.81879 2.7874,-1.64271 4.33203,-2.47852 z m 29.76172,0 c 1.54463,0.83581 2.96511,1.65973 4.33203,2.47852 -1.87151,-0.19214 -3.67729,-0.79701 -5.28516,-1.77149 0.29645,-0.21061 0.63964,-0.4762 0.95313,-0.70703 z m -28.51172,19.11719 c 1.58254,0.99135 5.75468,3.66299 7.54688,5.44336 1.94774,1.94223 3.72748,2.78471 5.5332,2.9668 -0.77774,0.80926 -2.31382,2.25944 -3.3418,2.30664 -1.46081,0.0742 -8.98012,-1.01947 -14.20117,0.91601 -5.22105,1.93548 -5.05273,5.49024 -5.05273,5.49024 0,0 0.60153,-2.69147 5.76171,-3.91211 -4.97081,2.98078 -6.56013,14.93185 -6.88476,18.23633 -0.20965,-0.35742 -0.7358,-1.34851 -1.41211,-2.69727 -1.88688,-4.08677 -4.904758,-11.50447 -3.951172,-15.55078 1.251157,-5.30065 14.060962,-12.1809 16.001952,-13.19922 z m 27.26172,0 c 1.94099,1.01832 14.7508,7.89857 16.00195,13.19922 0.95359,4.04631 -2.06429,11.46401 -3.95117,15.55078 -0.67631,1.34876 -1.20246,2.33985 -1.41211,2.69727 -0.32463,-3.30448 -1.91395,-15.25555 -6.88476,-18.23633 5.16018,1.22064 5.76171,3.91211 5.76171,3.91211 0,0 0.16832,-3.55476 -5.05273,-5.49024 -5.22105,-1.93548 -12.74036,-0.84181 -14.20117,-0.91601 -1.02798,-0.0472 -2.56406,-1.49738 -3.3418,-2.30664 1.80572,-0.18209 3.58546,-1.02457 5.5332,-2.9668 1.7922,-1.78037 5.96434,-4.45201 7.54688,-5.44336 z m -15.06836,11 c 0.55154,0.742 1.00698,1.55168 1.35352,2.4082 l 0.0332,-0.0605 c 0.0148,-0.0355 0.0356,-0.0682 0.0508,-0.10352 0.0152,0.0353 0.036,0.068 0.0508,0.10352 l 0.0332,0.0605 c 0.34654,-0.85652 0.80198,-1.6662 1.35352,-2.4082 0.81833,0.72834 1.86646,1.47656 2.70508,1.47656 2.72453,-0.18688 5.45906,-0.18688 8.18359,0 l 0.0527,0.20313 c 0.0972,1.23969 0.0131,2.48569 -0.25,3.70117 -1.05661,0.40784 -2.1541,0.702 -3.27344,0.87695 0,0 -0.93833,-2.50898 -1.01953,-2.02343 -0.0812,0.48554 0.16735,2.35332 -0.25196,2.69726 -0.4193,0.34393 -6.49198,1.57274 -6.65429,1.10742 -0.16232,-0.46533 -0.84571,-2.61718 -0.84571,-2.61718 0,-10e-6 -0.072,0.21971 -0.084,0.25781 -0.012,-0.0381 -0.084,-0.25782 -0.084,-0.25781 0,0 -0.68339,2.15185 -0.84571,2.61718 -0.16231,0.46532 -6.23499,-0.76349 -6.65429,-1.10742 -0.41931,-0.34394 -0.17076,-2.21171 -0.25196,-2.69726 -0.0812,-0.48555 -1.01953,2.02343 -1.01953,2.02343 -1.11934,-0.17495 -2.21683,-0.46911 -3.27344,-0.87695 -0.26313,-1.21548 -0.3472,-2.46148 -0.25,-3.70117 l 0.0527,-0.20313 c 2.72453,-0.18688 5.45906,-0.18688 8.18359,0 0.83862,0 1.88675,-0.74822 2.70508,-1.47656 z m -11.92969,1.59766 c -0.8048,2.18501 -3.61115,9.96793 -4.13867,13.33984 -0.45312,2.89311 0.0127,3.97178 0.2832,4.33594 -0.99875,-0.6475 -1.58708,-1.76567 -1.55468,-2.95313 0,0 -0.86562,3.47229 3.08398,4.16016 3.9496,0.68787 6.58016,-0.34375 15.55469,-0.34375 h 0.10742 v -0.0137 c 0.0114,0 0.0199,-1e-5 0.0312,0 0.0113,-1e-5 0.0198,0 0.0312,0 v 0.0137 h 0.10742 c 8.97453,0 11.60509,1.03162 15.55469,0.34375 3.9496,-0.68787 3.08398,-4.16016 3.08398,-4.16016 0.0324,1.18746 -0.55593,2.30563 -1.55468,2.95313 0.2705,-0.36416 0.73632,-1.44283 0.2832,-4.33594 -0.52752,-3.37191 -3.33387,-11.15483 -4.13867,-13.33984 0.79804,0.0809 1.64334,0.19627 2.52929,0.33789 0.95359,2.50871 5.59277,14.99212 5.41016,20.27929 0,0 -0.22972,2.69671 -3.50976,3.3711 -3.28007,0.67438 -5.52492,-1.57227 -17.61719,-1.57227 H 128 127.82031 c -12.09227,0 -14.33712,2.24665 -17.61719,1.57227 -3.28005,-0.67439 -3.50976,-3.3711 -3.50976,-3.3711 -0.18261,-5.28717 4.45657,-17.77058 5.41016,-20.27929 0.88595,-0.14162 1.73125,-0.25699 2.52929,-0.33789 z m -23.035154,2.38086 c 0,0 6.209101,16.7454 11.382814,22.99023 -0.81245,-1.74814 -1.27292,-3.63938 -1.35352,-5.56445 1.23086,2.48173 4.80876,9.00419 8.90039,9.59765 5.06549,0.74856 12.68164,-3.37304 12.68164,-3.37304 -2.16011,0.23541 -4.29347,0.67374 -6.37109,1.30859 0,0 2.38066,-1.69862 7.61523,-2.29883 0.82508,-0.0405 1.68451,-0.041 2.58399,-0.041 h 0.87891 l 0.084,-0.002 0.084,0.002 h 0.87891 c 0.89948,0 1.7589,5.1e-4 2.58399,0.041 5.23456,0.60021 7.61523,2.29883 7.61523,2.29883 -2.07762,-0.63485 -4.21098,-1.07318 -6.37109,-1.30859 0,0 7.61615,4.1216 12.68164,3.37304 4.09163,-0.59346 7.66953,-7.11592 8.90039,-9.59765 -0.0806,1.92507 -0.54107,3.81631 -1.35352,5.56445 5.17371,-6.24483 11.38281,-22.99023 11.38281,-22.99023 -0.10425,3.65734 -0.42551,7.30612 -0.96093,10.92578 0.64068,-1.1157 1.22236,-2.26378 1.74414,-3.43946 -0.6763,10.21017 -6.39063,19.7793 -6.39063,19.7793 0.044,-1.98063 -0.0796,-3.96218 -0.37109,-5.92187 -1.02121,11.3364 -10.0293,19.41015 -10.0293,19.41015 1.14295,-5.44228 0.62113,-8.76758 0.62109,-8.76758 -5.27239,15.57691 -20.37194,25.25675 -21.01562,25.66407 -0.64368,-0.40732 -15.74323,-10.08716 -21.01562,-25.66407 -3e-5,0 -0.52186,3.3253 0.62109,8.76758 0,0 -9.008083,-8.07375 -10.029298,-19.41015 -0.291496,1.95969 -0.415054,3.94124 -0.371094,5.92187 0,0 -5.714323,-9.56913 -6.390625,-19.7793 0.521778,1.17568 1.103457,2.32376 1.744141,3.43946 -0.535424,-3.61966 -0.856687,-7.26844 -0.960938,-10.92578 z m 21.638674,8.5371 c 0.4094,0.008 0.81794,0.0855 1.20703,0.23047 0.20968,0.45754 0.37544,0.93295 0.49414,1.42188 0.89439,0.17648 1.72936,0.57571 2.42773,1.16015 l -0.67578,2.19141 1.77149,-2.07617 2.96289,0.67383 0.33008,0.5 -0.41211,1.27343 1.19726,-1.61718 c 1.68727,0.0758 3.36982,0.2414 5.03906,0.49804 l 0.28321,0.98438 0.0137,0.0469 v 0.20313 l 0.041,-0.13477 -0.0254,-0.084 -0.002,-0.0312 0.11133,-0.39453 0.11133,0.39453 -0.002,0.0312 -0.0254,0.084 0.041,0.13477 v -0.20313 l 0.0137,-0.0469 0.28321,-0.98438 c 1.66924,-0.25664 3.35179,-0.42224 5.03906,-0.49804 l 1.19726,1.61718 -0.41211,-1.27343 0.33008,-0.5 2.96289,-0.67383 1.77149,2.07617 -0.67578,-2.19141 c 0.69837,-0.58444 1.53334,-0.98367 2.42773,-1.16015 0.1187,-0.48893 0.28446,-0.96434 0.49414,-1.42188 0.38909,-0.14497 0.79763,-0.22246 1.20703,-0.23047 0.4094,-0.008 0.82037,0.0539 1.21485,0.1836 0.33625,1.6064 0.58614,3.22847 0.75,4.86133 -0.81297,-1.0834 -1.75384,-2.06494 -2.80079,-2.92578 1.96804,2.31315 1.93556,4.48303 1.84766,5.02929 -2.65787,0.26975 -6.22176,-1.10547 -15.4668,-1.10547 l -0.18359,0.0332 -0.125,-0.0234 -0.125,0.0234 -0.18359,-0.0332 c -9.24504,0 -12.80893,1.37522 -15.4668,1.10547 -0.0879,-0.54626 -0.12038,-2.71614 1.84766,-5.02929 -1.04695,0.86084 -1.98782,1.84238 -2.80079,2.92578 0.16386,-1.63286 0.41375,-3.25493 0.75,-4.86133 0.39448,-0.12966 0.80545,-0.19158 1.21485,-0.1836 z m 14.7539,5.2129 -0.041,0.14257 v 0.13477 z m 0.0195,0 0.041,0.27734 v -0.13477 z" />
    <path
       style="font-variation-settings:normal;display:inline;vector-effect:none;fill:#bdbdc0;fill-opacity:0.996078;stroke:none;stroke-width:0.0298462;stroke-linecap:butt;stroke-linejoin:miter;stroke-miterlimit:4;stroke-dasharray:none;stroke-dashoffset:0;stroke-opacity:1;paint-order:markers fill stroke;stop-color:#000000"
       d="m 142.5796,167.64269 c -1.20748,0.0126 -8.38227,-0.0589 -10.03295,-0.0614 -2.02312,-0.003 -2.53489,0.17549 -4.0936,-2.24908 0.50195,0.48809 1.38498,0.8686 2.46383,0.85208 1.07884,-0.0165 7.42568,0.0954 11.52336,0.0969 2.88876,0.001 8.78379,2.54755 8.19623,7.62109 0.22183,-3.2043 -4.78766,-6.24207 -8.05687,-6.25964 -2e-5,0 2e-5,5e-5 0,5e-5 z"
       id="path3417" />
    <path
       class="cls-11"
       d="m 143.5076,179.93101 a 5.5253845,5.509716 0 0 0 -2.06949,0.24278 c 0,0 0.22318,-0.62043 0.33139,-1.02507 0.10821,-0.40463 1.53521,-0.3237 1.53521,-0.3237 l 0.28404,1.0925 z"
       id="path1979"
       style="fill:#bdbdc0;fill-opacity:0.996078;stroke-width:0.675342" />
    <path
       class="cls-11"
       d="m 112.4924,179.93101 0.20289,-1.10599 c 0,0 1.42024,-0.0742 1.53521,0.3237 0.11497,0.39789 0.33139,1.02507 0.33139,1.02507 a 5.5659626,5.550179 0 0 0 -2.06949,-0.24278 z"
       id="path1981"
       style="fill:#bdbdc0;fill-opacity:0.996078;stroke-width:0.675342" />
    <path
       style="fill:#bdbdc0;fill-opacity:0.996078;stroke:none;stroke-width:1px;stroke-linecap:butt;stroke-linejoin:miter;stroke-opacity:1"
       d="m 128.41142,191.83304 c 6.14178,-0.82004 15.43069,1.62833 16.50594,1.52734 0.70605,-0.0663 1.65389,-0.23092 2.29337,-0.58939 1.71315,-0.96033 2.43294,-2.43675 2.27044,-3.87718 -0.57012,-5.05361 -2.59464,-11.70062 -5.42501,-19.24624 8.15589,17.15313 9.38153,24.35613 1.80932,25.23852 -3.11832,0.36338 -6.52688,-2.47545 -17.45406,-3.05305 z"
       id="path3497" />
    <path
       style="fill:#9f755d;fill-opacity:1;stroke:none;stroke-width:1px;stroke-linecap:butt;stroke-linejoin:miter;stroke-opacity:1"
       d="m 130.19973,135.94495 c 2.58059,1.74724 3.52652,6.25784 2.60745,13.92116 2.01879,-5.7788 1.82854,-12.61802 -2.60745,-13.92116 z"
       id="path991" />
  </g>
</svg>
