<?xml version="1.0" encoding="UTF-8" standalone="no"?>
<!-- Created with Inkscape (http://www.inkscape.org/) -->

<svg
   xmlns:dc="http://purl.org/dc/elements/1.1/"
   xmlns:cc="http://creativecommons.org/ns#"
   xmlns:rdf="http://www.w3.org/1999/02/22-rdf-syntax-ns#"
   xmlns:svg="http://www.w3.org/2000/svg"
   xmlns="http://www.w3.org/2000/svg"
   xmlns:sodipodi="http://sodipodi.sourceforge.net/DTD/sodipodi-0.dtd"
   xmlns:inkscape="http://www.inkscape.org/namespaces/inkscape"
   width="256px"
   height="256px"
   viewBox="0 0 256 256"
   version="1.1"
   id="SVGRoot"
   inkscape:version="0.92.4 (5da689c313, 2019-01-14)"
   sodipodi:docname="Logo.svg"
   inkscape:export-filename="E:\Projects\fvhssec.github.io\assets\images\icons\shortcut.png"
   inkscape:export-xdpi="480"
   inkscape:export-ydpi="480">
  <defs
     id="defs815" />
  <sodipodi:namedview
     id="base"
     pagecolor="#ffffff"
     bordercolor="#666666"
     borderopacity="1.0"
     inkscape:pageopacity="0.0"
     inkscape:pageshadow="2"
     inkscape:zoom="2.046875"
     inkscape:cx="-37.091881"
     inkscape:cy="101.17428"
     inkscape:document-units="px"
     inkscape:current-layer="layer1"
     showgrid="false"
     inkscape:window-width="2560"
     inkscape:window-height="1017"
     inkscape:window-x="-8"
     inkscape:window-y="-8"
     inkscape:window-maximized="1"
     inkscape:grid-bbox="true"
     inkscape:pagecheckerboard="true" />
  <metadata
     id="metadata818">
    <rdf:RDF>
      <cc:Work
         rdf:about="">
        <dc:format>image/svg+xml</dc:format>
        <dc:type
           rdf:resource="http://purl.org/dc/dcmitype/StillImage" />
        <dc:title />
      </cc:Work>
    </rdf:RDF>
  </metadata>
  <g
     inkscape:groupmode="layer"
     id="layer2"
     inkscape:label="1080"
     style="display:none">
    <rect
       style="opacity:1;fill:#fdf6e3;fill-opacity:1;fill-rule:nonzero;stroke:none;stroke-width:56.79569244;stroke-linecap:round;stroke-linejoin:round;stroke-miterlimit:4;stroke-dasharray:none;stroke-opacity:1;paint-order:fill markers stroke"
       id="rect1409"
       width="1920"
       height="1080"
       x="-832"
       y="-412"
       inkscape:export-filename="E:\FVSEC\BackGround\1080\SolarizedLight.png"
       inkscape:export-xdpi="96"
       inkscape:export-ydpi="96" />
  </g>
  <g
     inkscape:label="Logo"
     inkscape:groupmode="layer"
     id="layer1"
     style="display:inline">
    <path
       style="fill:#fdf6e3;fill-opacity:1;stroke-width:0.09578652"
       d="m 55.654631,255.87932 c -0.02412,-0.31002 0.06839,-1.10774 0.838226,-7.22515 4.268902,-33.92419 4.439921,-35.35372 4.252836,-35.54835 -0.04461,-0.0463 -0.741628,0.13722 -1.54901,0.40793 -2.880828,0.96594 -6.184645,1.76331 -8.21152,1.98186 -2.190381,0.23618 -8.610378,0.48751 -14.450429,0.56567 -4.472135,0.0598 -4.81843,0.0348 -4.403941,-0.31758 0.285828,-0.24309 1.767971,-1.194 6.379688,-4.09311 6.7792,-4.26167 6.850324,-4.31247 8.209867,-5.86227 2.495418,-2.84463 6.296327,-9.9979 8.918895,-16.7853 0.912505,-2.3616 1.416543,-3.84378 2.553255,-7.50806 1.173646,-3.78337 1.883914,-5.71605 2.651715,-7.21555 1.096393,-2.14124 2.104981,-3.62787 4.106327,-6.05262 0.569545,-0.69006 1.026108,-1.28991 1.014585,-1.33299 -0.01171,-0.0432 -0.20239,-0.385 -0.424126,-0.7598 -0.643225,-1.08726 -1.225827,-2.33275 -1.394644,-2.98149 -0.209053,-0.80338 -0.402017,-1.20161 -1.20996,-2.4971 -1.236086,-1.982 -1.610525,-3.0271 -1.779481,-4.96686 -0.116167,-1.33315 0.0047,-3.84174 0.250625,-5.18629 0.0753,-0.4125 0.16049,-1.11212 0.18925,-1.55473 0.04731,-0.72879 0.02436,-0.89349 -0.244043,-1.74543 -0.162985,-0.51739 -0.522832,-1.5053 -0.799653,-2.19534 -0.276821,-0.69003 -0.610906,-1.52462 -0.742412,-1.85463 -0.280804,-0.70468 -0.376384,-1.98059 -0.204546,-2.73056 0.145789,-0.63543 2.101098,-5.11394 3.147263,-7.93641 l -0.103756,-5.26672 c -0.05703,-2.89669 -0.130149,-6.23084 -0.162481,-7.40918 l -0.05879,-2.14248 c -1.019864,-0.99778 -1.942966,-2.08393 -2.598146,-3.17518 -0.681314,-3.36848 -1.604389,-6.45067 -1.930457,-9.51748 -0.05949,-0.80685 -0.03653,-0.93527 0.470159,-2.62279 0.543522,-1.87866 1.04113,-3.771562 1.568238,-5.573592 2.138008,-5.516363 5.395398,-8.811898 9.99407,-11.851889 C 69.056384,82.54765 67.586992,77.716285 65.849129,71.50073 64.444614,66.477401 64.265562,65.897893 63.724567,64.624835 63.520233,64.143994 62.825728,62.445555 62.181213,60.850523 59.874275,55.141337 57.535202,49.838224 55.300306,45.250221 51.571801,37.596007 50.821823,36.042174 49.097643,32.399433 c -1.705009,-3.602248 -2.120655,-4.599551 -1.916952,-4.599551 0.458319,0 22.746603,12.179603 28.930264,15.809166 l 2.509833,1.473172 0.386208,-0.616014 c 0.527738,-0.841757 1.287037,-1.490567 2.484526,-2.122974 2.120768,-1.120006 4.366602,-1.584733 10.596988,-2.192815 2.743452,-0.267758 3.914012,-0.422548 5.734292,-0.758278 3.551528,-0.655033 6.094988,-1.321215 7.972158,-2.088052 2.07368,-0.847112 5.72099,-2.584306 6.88006,-3.276936 3.12526,-1.867561 8.65247,-5.651616 11.84668,-8.110505 1.30069,-1.001267 1.60565,-1.309363 5.55636,-5.613207 5.23095,-5.698528 7.27526,-8.052912 13.11476,-15.1039962 3.5437,-4.27895295 4.33482,-5.19864395163 4.47251,-5.1994379516321 0.0631,-3.649999979e-4 0.11464,0.016130001632 0.11464,0.036640001632 0,0.02053 0.49359,2.70932295 1.09688,5.97511595 1.67836,9.0857512 2.43266,12.6091832 2.94516,13.7571852 0.21754,0.487317 0.42725,0.755783 0.98435,1.260175 1.9065,1.726124 7.27704,5.852566 14.03331,10.782434 2.03046,1.481585 3.74794,2.717286 3.81659,2.746005 0.0687,0.02872 2.01998,-1.046399 4.33626,-2.38915 2.31627,-1.34275 4.78406,-2.762478 5.48398,-3.154945 1.42917,-0.801387 1.78755,-0.881569 2.04274,-0.457048 0.16654,0.277031 0.15768,1.426097 -0.0566,7.343615 -0.0488,1.347526 -0.15081,4.880094 -0.2267,7.850153 -0.0759,2.970057 -0.16175,5.924629 -0.19082,6.565714 l -0.0529,1.165611 1.12895,0.933815 c 2.41714,1.999353 4.48427,4.422899 11.58745,13.585292 1.25788,1.62253 2.68557,3.445066 3.17265,4.050078 0.86103,1.06946 1.84978,2.150043 1.96736,2.150043 0.032,0 0.89111,-0.177932 1.90928,-0.395403 3.15866,-0.674667 5.55006,-1.169627 9.87922,-2.044756 2.29601,-0.464135 5.57833,-1.137604 7.29402,-1.496599 1.71571,-0.358996 4.66772,-0.906417 6.56003,-1.216493 1.89232,-0.310077 4.0996,-0.694974 4.90506,-0.855325 0.80547,-0.160351 1.49703,-0.291548 1.5368,-0.291548 0.27189,0 -0.23039,0.603142 -2.5196,3.025558 -4.74767,5.023947 -6.16112,6.42007 -8.92257,8.813231 -7.66514,6.642885 -11.08403,9.807858 -12.07725,11.180319 -2.59653,3.587938 -13.83762,20.032838 -14.71158,21.521928 -0.32314,0.55061 -0.34139,0.62283 -0.28639,1.13294 0.0779,0.72262 1.40445,7.21667 2.0278,9.92712 0.87877,3.82107 0.99809,4.56341 0.99649,6.20012 -0.001,1.33717 -0.0209,1.50436 -0.25047,2.14804 -0.13697,0.38391 -0.33826,0.80152 -0.4473,0.92802 -0.109,0.12649 -1.07216,0.72296 -2.14027,1.32544 -1.40095,0.79023 -2.0299,1.20146 -2.25742,1.47593 -1.52494,1.83976 -2.32846,4.69534 -2.55153,9.06765 -0.0507,0.99288 -0.13494,2.70526 -0.18731,3.80528 -0.0523,1.10003 -0.15992,3.17007 -0.23899,4.60009 -0.20631,3.73151 -0.13411,6.30229 0.28226,10.0502 0.43562,3.92132 0.49417,5.21674 0.28268,6.25511 -0.089,0.43726 -0.60764,2.25755 -1.15237,4.04509 -2.32741,6.82933 -2.17918,11.24362 1.19519,17.90034 0.089,0.1375 0.54637,1.06002 1.01633,2.05003 1.05185,2.21585 1.43024,2.90352 2.0909,3.80009 1.38825,1.8839 13.54851,16.71344 15.78539,19.25037 0.5092,0.57751 0.92582,1.10186 0.92584,1.16523 1e-5,0.0634 -0.13417,0.16928 -0.29817,0.23533 -0.49454,0.19918 -13.15959,4.85526 -25.34559,9.31786 -20.28443,7.4283 -35.62689,13.04448 -41.88332,15.33156 -3.35571,1.22673 -11.64476,4.2619 -18.42012,6.74486 l -12.31882,4.51448 -2.49861,-0.69915 c -4.52886,-1.26727 -6.91426,-1.99362 -10.434868,-3.1774 -3.765401,-1.26611 -5.912295,-2.16437 -9.266619,-3.87718 -5.469565,-2.7929 -7.861052,-4.51306 -10.750522,-7.73262 l -1.252528,-1.39561 -3.522497,3.71158 c -10.260209,10.81101 -16.060487,16.86263 -16.504438,17.21963 -0.326156,0.26229 -0.62675,0.31714 -0.642301,0.1173 z m 70.243399,-22.62839 c 6.86281,-2.23464 14.08802,-4.5564 16.05604,-5.15946 3.9907,-1.22287 5.18739,-1.61149 11.97321,-3.88821 5.02221,-1.68499 9.75092,-3.24925 12.38609,-4.09735 0.88307,-0.28419 1.63714,-0.55013 1.67571,-0.59091 0.14925,-0.15798 -0.92183,-1.63689 -6.16434,-8.51156 -4.33871,-5.68945 -7.16682,-9.45732 -8.45997,-11.27115 -0.86719,-1.21637 -1.08896,-1.59201 -1.08896,-1.84451 0,-0.33735 0.9493,-10.78874 1.10165,-12.12865 0.0497,-0.43661 0.13012,-0.82069 0.17885,-0.85351 0.0487,-0.0328 0.84368,-0.16024 1.76657,-0.28314 0.92289,-0.12292 1.78805,-0.25632 1.92255,-0.2965 l 0.24458,-0.073 -0.23179,-0.60002 c -0.29996,-0.77647 -0.87692,-2.15452 -2.33317,-5.57285 -0.6497,-1.52504 -1.18127,-2.82933 -1.18127,-2.89843 0,-0.069 0.42816,-0.59885 0.95146,-1.17726 l 0.95145,-1.05165 -2.10291,-4.5001 c -1.15661,-2.47504 -2.8794,-6.1508 -3.82843,-8.16835 -2.02767,-4.3106 -2.8639,-6.5557 -5.37557,-14.43208 -3.14823,-9.87264 -3.22021,-10.08149 -5.29035,-15.3503 -1.62739,-4.14193 -2.08313,-5.21232 -2.3281,-5.46797 -0.16752,-0.17483 -0.4795,-0.61475 -0.4795,-0.61475 -19.57423,-11.81441 -25.41117,-16.11477 -39.171158,-25.406097 -0.08237,-0.05562 -0.18733,-0.0334 -0.24867,0.0012 -9.257187,5.669907 -17.221082,10.684897 -26.185352,16.342937 -0.392275,0.3025 -0.369311,0.21854 -1.172515,0.0915 -0.164173,-0.0393 -0.26853,-0.32106 -0.761173,-0.92862 -2.60522,-3.51379 -3.534457,-4.79875 -5.091908,-6.92631 -0.0046,0.33887 -0.0203,0.40532 -0.0285,0.86189 0.355576,0.87974 0.183829,0.50533 0.531544,1.33429 2.241737,5.38664 3.293164,7.65519 5.080098,11.60642 0.04801,0.10616 0.150821,0.19446 0.210902,0.27299 0.017,0.0222 0.129712,0.1077 0.212743,0.1134 0.478451,0.033 0.03898,-0.001 1.160988,0.0635 0.221679,0.0129 0.668943,-0.31289 0.927316,-0.48775 8.737654,-5.4403 14.02543,-8.80748 23.620298,-14.50702 0,0 0.0534,-0.0397 0.1331,-0.0425 0.19403,-0.006 0.534614,0.0429 0.65917,0.12649 14.911267,10.00741 14.248537,9.51135 32.593627,22.45255 0.60257,0.56553 0.52959,0.56594 0.95096,1.9355 0.31234,0.9509 2.16881,6.61149 4.12551,12.57912 1.9567,5.96761 3.80358,11.48022 4.1042,12.25023 0.3006,0.77001 0.83798,2.34504 1.19415,3.50008 0.35617,1.15501 0.72457,2.22079 0.81866,2.36837 0.19036,0.29861 0.62039,0.42343 1.81875,0.5279 1.00265,0.0874 1.46799,0.16664 1.46799,0.24996 0,0.0405 -0.43369,0.3766 -0.96378,0.74709 -0.53006,0.37048 -1.21988,0.87912 -1.53293,1.1303 -0.55354,0.44414 -0.56297,0.45928 -0.34363,0.55163 0.12402,0.0523 0.77202,0.20104 1.44002,0.33072 1.33779,0.2597 1.58382,0.35919 1.58382,0.64052 0,0.26019 -0.1797,0.43458 -0.94649,0.9186 -1.56097,0.98529 -1.66461,1.12882 -1.65013,2.28509 0.0166,1.31618 0.51937,3.57614 2.05334,9.22772 0.39973,1.47267 0.72677,2.73737 0.72677,2.81043 0,0.12649 -3.36659,8.03672 -5.96366,14.01235 -0.66933,1.54004 -1.39762,3.21631 -1.61842,3.72508 -0.2208,0.50876 -0.41956,0.92501 -0.44168,0.92501 -0.0221,0 -0.85787,0.11124 -1.85721,0.24746 -0.99935,0.1361 -6.31727,0.8128 -11.8176,1.50379 -10.20733,1.28231 -13.10752,1.6614 -14.1908,1.85489 l -0.61196,0.10927 -0.52245,1.26734 c -0.28733,0.69704 -0.89595,2.00985 -1.35249,2.91737 -0.45652,0.90751 -0.99212,1.97629 -1.19021,2.37505 l -0.36018,0.72501 0.71904,-10e-4 c 0.39545,-9.9e-4 1.19382,-0.0448 1.77413,-0.0985 1.71209,-0.1579 25.54488,-1.50232 35.48561,-2.00173 2.07366,-0.10415 2.77362,-0.0749 2.77362,0.11578 0,0.0508 -0.50278,0.45083 -1.1173,0.88888 -0.61451,0.43805 -1.05835,0.79687 -0.98629,0.79736 0.25364,0.001 2.51845,0.30503 2.67703,0.35847 0.0883,0.0298 0.16055,0.0859 0.16055,0.12471 0,0.0387 -0.49582,0.51325 -1.10182,1.05431 -0.60601,0.54105 -1.12858,1.0309 -1.16126,1.08857 -0.058,0.10205 0.65957,0.0751 2.42312,-0.0916 l 0.66464,-0.0628 0.3151,0.75359 c 0.96067,2.29769 0.93068,3.0349 -0.27432,6.74192 l -0.5259,1.61792 -0.4221,0.1945 c -0.23213,0.10694 -2.96122,1.36555 -6.06462,2.79684 -3.10341,1.43129 -8.55328,3.93916 -12.11083,5.57303 -8.02718,3.68661 -13.278,6.12867 -13.57882,6.31522 -0.32387,0.20085 -1.1193,0.45419 12.61545,-4.01809 z m -52.991326,-7.4472 c 0.89206,-1.12753 2.835943,-3.62507 4.319738,-5.55012 4.3872,-5.69184 5.796669,-7.45012 5.972196,-7.45012 0.188875,0 0.351532,1.2524 0.675382,5.20008 0.16117,1.96477 0.228997,2.50006 0.316789,2.50006 0.07518,0 0.725,-1.31942 3.816731,-7.75015 3.650479,-7.59293 4.539259,-9.35018 4.729154,-9.35018 0.134189,0 0.215003,0.23429 1.410688,4.08987 0.58671,1.89192 1.0982,3.50108 1.13662,3.57591 0.0765,0.14894 1.17767,-1.39882 7.446078,-10.46583 3.40717,-4.92833 4.73298,-6.80014 4.81659,-6.80014 0.19426,0 0.38372,0.23699 0.64971,0.81267 0.17466,0.37806 0.35552,0.68736 0.40192,0.68736 0.10534,0 0.37876,-0.41839 0.6372,-0.97502 0.10856,-0.23375 0.25428,-0.425 0.32386,-0.425 0.0695,0 0.36806,0.17828 0.66331,0.39617 0.48949,0.36125 0.54709,0.38136 0.65341,0.22805 0.0642,-0.0925 0.65782,-1.22703 1.31932,-2.52122 1.39189,-2.7232 2.08669,-3.92605 2.39492,-4.14618 0.12033,-0.0859 0.48428,-0.18425 0.80881,-0.21849 0.97392,-0.10275 1.08453,-0.25782 1.27577,-1.78849 0.1566,-1.25336 0.36653,-2.223 0.50929,-2.35211 0.10244,-0.0926 0.2737,-0.0645 0.79349,0.13115 0.36454,0.13716 0.71653,0.2269 0.78219,0.19945 0.0657,-0.0275 0.11962,-0.19136 0.1199,-0.36424 0.001,-0.69502 0.18134,-1.05474 1.00982,-2.01561 0.56731,-0.65799 0.845,-1.06286 0.90763,-1.3234 0.13598,-0.56574 0.25251,-1.65555 0.55647,-5.20495 0.15213,-1.77625 0.30203,-3.34003 0.33313,-3.47506 0.0817,-0.35427 0.29648,-0.30365 0.74421,0.17532 l 0.39341,0.42081 0.003,-0.34582 c 0.002,-0.19021 -0.19297,-1.4123 -0.43284,-2.71577 -0.23987,-1.30349 -0.40601,-2.40281 -0.3692,-2.44294 0.0368,-0.04 0.30386,0.0131 0.59339,0.11833 0.75347,0.2738 0.75582,0.27413 0.75582,0.1095 0,-0.0822 -0.16445,-0.63871 -0.36546,-1.23654 -0.20101,-0.59783 -0.39196,-1.23135 -0.42434,-1.4078 -0.0546,-0.29714 -0.0408,-0.32084 0.18653,-0.32084 0.13495,0 0.37104,0.0709 0.52461,0.15737 0.15356,0.0866 0.30308,0.13137 0.33224,0.0996 0.0291,-0.0318 0.004,-0.72137 -0.0554,-1.5324 -0.15825,-2.15214 -0.53605,-7.90425 -0.70152,-10.68063 l -0.14339,-2.40589 1.06722,-2.3942 c 1.26042,-2.82759 2.2545,-5.16202 2.21603,-5.20397 -0.0274,-0.0299 -1.12838,1.80837 -3.12336,5.21467 -1.77541,3.03136 -2.17834,3.93337 -2.76743,6.19526 -0.18622,0.71502 -0.40216,1.37705 -0.47992,1.47117 -0.10678,0.12935 -0.32353,0.17821 -0.88722,0.20001 l -0.74591,0.0289 0.0288,1.30002 0.0288,1.30003 -0.39621,-0.45001 c -0.21792,-0.2475 -0.56456,-0.66154 -0.77034,-0.92007 l -0.37412,-0.47008 -0.14692,1.13931 c -0.2589,2.00766 -0.45529,2.05091 -1.36567,0.30085 -0.76559,-1.47173 -0.83647,-1.58667 -0.77085,-1.25003 0.0268,0.1375 0.0763,1.22878 0.11023,2.42505 0.0522,1.84935 0.0418,2.17504 -0.0696,2.17504 -0.0828,0 -0.58004,-1.07734 -1.35012,-2.92505 -0.6705,-1.60879 -1.27724,-3.03757 -1.34831,-3.17508 l -0.1292,-0.24999 -0.002,0.35001 c -0.001,0.1925 0.10044,1.31751 0.22667,2.50003 0.45913,4.30052 0.49453,5.30011 0.18772,5.30011 -0.071,0 -0.45205,-0.39267 -0.84694,-0.8726 -0.39488,-0.47993 -0.92985,-1.11844 -1.18885,-1.41891 l -0.47088,-0.5463 0.17017,1.19391 c 0.43716,3.06741 0.47763,3.45436 0.373,3.56839 -0.0567,0.0617 -0.12067,0.0926 -0.14229,0.0689 -0.0671,-0.0739 -1.72545,-2.99449 -2.25746,-3.97567 l -0.50461,-0.93067 -0.0583,1.2815 c -0.0321,0.70481 -0.063,1.87773 -0.0689,2.60651 l -0.0111,1.32501 h -0.24711 c -0.32811,0 -0.90066,-0.65396 -2.14504,-2.45004 -1.91243,-2.76035 -3.86067,-5.8829 -5.365838,-8.60017 -0.39607,-0.71502 -0.7543,-1.32604 -0.79607,-1.35782 -0.0418,-0.0318 -0.58045,-0.13612 -1.19705,-0.23186 -1.38582,-0.21515 -1.97823,-0.39013 -2.66441,-0.78694 -0.667973,-0.38629 -1.101608,-0.9197 -1.827625,-2.24815 -0.674072,-1.23337 -0.9176,-1.52535 -1.272224,-1.52535 -0.143032,0 -0.965648,0.24667 -1.828046,0.54817 -2.569191,0.89815 -3.197404,1.00254 -6.006636,0.99807 -1.608756,-0.002 -3.012827,-0.0669 -4.312195,-0.19743 -1.308,-0.13146 -2.663309,-0.19303 -4.220446,-0.19172 -2.005983,0.001 -2.408233,0.0291 -3.206575,0.21852 -2.130815,0.50562 -3.028788,1.51151 -3.14643,3.52449 -0.03818,0.65377 -0.0059,0.87464 0.252053,1.7214 0.162728,0.53426 0.487268,1.38928 0.721195,1.90003 0.368126,0.80377 0.459489,0.93293 0.679387,0.96049 0.139739,0.0174 1.089343,-0.1102 2.110229,-0.28358 2.405691,-0.40875 3.989165,-0.41941 6.902337,-0.0464 2.847396,0.36457 4.880101,0.42821 6.242131,0.19547 l 1.062492,-0.18155 0.428998,0.22718 c 0.23594,0.12495 0.759966,0.48521 1.164489,0.8006 0.404534,0.31538 0.793962,0.61063 0.865406,0.65611 0.09287,0.0591 0.253025,-0.0703 0.561394,-0.45357 l 0.431504,-0.53625 0.238948,0.17065 c 0.131426,0.0938 0.448261,0.50874 0.704074,0.92194 0.604828,0.97694 1.336069,1.77657 2.24307,2.45286 0.86692,0.64639 1.49313,1.45114 1.94139,2.49486 0.80739,1.87993 0.82402,1.89803 2.84813,3.10006 3.924218,2.3304 6.549098,4.6738 8.629948,7.70454 1.05764,1.54042 1.76825,2.75251 1.76825,3.01606 0,0.28855 -0.34547,0.22301 -1.76474,-0.33476 -2.14517,-0.84305 -3.51489,-1.28016 -5.14628,-1.6423 -1.700228,-0.37743 -1.751278,-0.39792 -1.912348,-0.76709 -0.0783,-0.17947 -0.21418,-0.59631 -0.30195,-0.92632 -0.26038,-0.97891 -0.26709,-0.98618 -0.6921,-0.74984 -0.19836,0.11031 -0.7626,0.4704 -1.25388,0.8002 -0.49127,0.32981 -0.96597,0.59966 -1.05489,0.59966 -0.20705,0 -0.28359,-0.16322 -0.71591,-1.52668 -0.46332,-1.46119 -0.46793,-1.47338 -0.55781,-1.47338 -0.0422,0 -0.33952,0.24301 -0.66073,0.54004 -0.644999,0.5964 -1.243199,1.05999 -1.367798,1.05999 -0.116517,0 -0.757203,-1.11684 -1.670808,-2.91258 l -0.79497,-1.56257 -2.360923,0.99339 c -3.270467,1.37612 -6.039191,2.48173 -6.214741,2.48173 -0.1748,0 -0.708301,-0.3856 -2.998025,-2.16699 -1.987375,-1.54617 -1.706023,-1.50222 -3.102904,-0.48475 -1.270748,0.92559 -2.695991,2.20465 -3.825524,3.43317 -1.685623,1.83335 -2.583023,3.1652 -3.620806,5.37371 -1.123737,2.39145 -1.707275,4.27644 -2.598913,8.39515 -0.825848,3.81489 -1.452962,5.85088 -2.56199,8.3178 -1.242105,2.76291 -3.83761,7.66188 -5.685082,10.73048 -0.479458,0.79635 -0.855851,1.46524 -0.836424,1.48641 0.06218,0.0677 6.19625,-3.53139 13.457031,-7.89596 3.751223,-2.25491 4.20651,-2.46768 4.201485,-1.96352 -0.0012,0.12381 -0.04087,0.40721 -0.08807,0.62993 -0.138628,0.65404 -2.564369,20.73504 -3.436168,28.44563 -0.127492,1.12753 -0.250907,2.20754 -0.274257,2.40005 l -0.04251,0.35001 0.373432,-0.45002 c 0.205375,-0.2475 1.103302,-1.37252 1.995362,-2.50005 z m 4.112137,-60.34295 c 0.719049,-0.19549 1.833793,-0.54081 2.477207,-0.76739 2.202248,-0.77552 5.245241,-2.18219 4.885674,-2.25849 -0.60108,-0.12751 -9.033656,-1.53948 -9.679494,-1.62074 -0.858801,-0.10798 -2.151741,-0.15732 -3.371773,-0.1285 -0.93911,0.0222 -1.017898,0.10962 -1.156021,1.28361 -0.133124,1.13134 -0.129435,1.72414 0.01241,1.99987 0.248434,0.4829 0.906814,0.86462 2.680393,1.55405 0.977908,0.38011 1.037725,0.39076 1.926728,0.34267 0.615261,-0.0333 1.348129,-0.16674 2.22486,-0.40508 z m 21.375091,-19.3163 c 0.7961,-0.25112 2.541548,-0.84254 3.878798,-1.31425 4.14241,-1.46125 5.8679,-2.03031 7.24815,-2.3904 1.24341,-0.29691 2.5754,-0.82926 3.62948,-1.28457 0.27873,-0.16672 0.54393,-1.32653 0.59047,-1.57895 -9.62053,-12.60458 -15.669758,4.8427 -24.351528,-8.03901 -0.132963,-0.0489 -0.280043,-0.12048 -0.519529,-0.0208 -1.864895,0.78858 -1.194422,1.45445 -0.72219,2.40571 0.363771,0.73134 1.134125,2.2234 1.711902,3.31567 3.170835,5.99434 4.997957,8.90738 5.852847,9.33146 0.39926,0.19806 1.01647,0.10019 2.68128,-0.4249 z m -24.452817,-3.13313 c 3.517039,-0.79925 3.982918,-0.78108 4.293435,-0.6794 0.07616,0.0249 -0.213093,0.28408 -0.473555,0.43882 -0.26045,0.15474 -0.468999,0.3262 -0.463437,0.38101 0.02085,0.20507 0.766115,0.2642 2.771969,0.21997 2.275098,-0.0502 2.879329,-0.16227 3.290022,-0.61034 0.482348,-0.85815 0.13769,-1.71075 -0.07263,-2.49022 -0.36514,-0.79704 -1.063089,-1.60758 -1.714337,-1.99087 -0.895104,-0.52681 -1.329945,-0.59041 -3.815033,-0.55792 -1.764808,0.023 -2.292488,9.9e-4 -2.385339,-0.10019 -0.273929,-0.29835 -0.09287,-1.11915 1.466428,-6.64526 0.399616,-1.41627 0.87639,-3.39783 0.87639,-3.39783 -0.915724,1.7049 -1.036396,2.13121 -1.527136,3.18332 -0.305451,0.67433 -0.458957,1.00851 -0.829618,1.75963 -0.258432,0.45982 -0.418796,0.53475 -1.580534,0.63918 -0.609969,0.0548 -0.805591,0.0905 -1.086474,-0.11206 -0.773189,-0.56901 -1.44255,-1.17084 -2.187915,-1.7646 l -0.57252,1.48372 c -0.831036,2.15366 -1.322226,3.31942 -2.247521,5.3341 -0.533444,0.95308 -0.610475,1.53877 -0.440519,2.57027 0.773071,1.57785 1.588193,2.67999 2.210305,2.98856 0.442652,0.21956 1.048428,0.13187 4.488027,-0.6498 z M 189.76473,104.99393 c 0.8749,-1.53366 2.89916,-5.28853 5.81195,-10.780748 4.6767,-8.818177 5.00998,-9.363457 7.2421,-11.848837 l 1.06571,-1.18662 -2.24784,0.06332 c -1.27147,0.03582 -2.97885,0.154068 -3.93077,0.272237 l -1.68291,0.208915 -0.28969,-0.295753 c -2.0259,-2.068378 -7.27338,-7.225664 -7.35203,-7.225664 -0.0245,0 0.15348,0.326257 0.39541,0.725015 2.35927,3.888417 3.34533,5.5372 3.68442,6.160638 0.49807,0.915722 0.56955,1.497085 0.28459,2.314529 -0.28331,0.812693 -2.24905,4.444553 -2.42609,4.482372 -0.0831,0.01775 -1.06985,-0.595097 -2.19274,-1.361892 -1.12289,-0.766807 -3.81695,-2.607568 -5.98681,-4.090582 -4.90869,-3.354912 -6.72763,-4.558244 -7.99726,-5.29063 -1.42625,-0.822753 -1.52227,-0.903428 -1.39401,-1.171159 0.16238,-0.338944 1.25169,-1.731506 3.05935,-3.911019 0.909,-1.096001 1.98136,-2.395485 2.38303,-2.887744 l 0.73029,-0.895016 -0.27155,-0.242452 c -0.14935,-0.133348 -1.38631,-1.054995 -2.74877,-2.048106 l -2.47721,-1.805655 -0.0636,-0.514256 c -0.11359,-0.918224 -0.34599,-4.724643 -0.53504,-8.764417 -0.25498,-5.44788 -0.42579,-7.828532 -0.55818,-7.779049 -0.0426,0.0159 -2.19428,1.948523 -4.78167,4.294731 -6.95832,6.309694 -6.43377,5.884364 -7.25699,5.884364 -0.55358,0 -1.21227,-0.191566 -4.28264,-1.245504 -1.23631,-0.42438 -2.32656,-0.795531 -2.4228,-0.824784 -0.16504,-0.05018 -0.17184,-0.0058 -0.12032,0.783549 0.03,0.460201 0.34424,2.906771 0.69819,5.436821 1.03592,7.404322 1.0794,7.850152 0.76552,7.850152 -0.0891,0 -1.75084,-0.49815 -3.69288,-1.107 -6.07516,-1.904628 -10.6598,-3.109084 -14.62256,-3.841564 -2.44711,-0.452327 -4.56491,-0.748245 -9.68951,-1.353906 -3.97772,-0.470115 -6.73324,-0.819586 -7.54633,-0.957075 -0.24591,-0.04158 -0.34406,-0.108021 -0.34406,-0.232865 0,-0.245226 3.38536,-6.602761 6.91871,-12.992941 0.75633,-1.367864 0.78035,-1.429164 0.53763,-1.372663 -0.66643,0.155135 -5.65692,0.969787 -6.26361,1.022478 l -0.68811,0.05976 -0.46301,-0.537325 c -0.59439,-0.689798 -1.24044,-1.693037 -4.06749,-6.316327 -1.27091,-2.078431 -2.34982,-3.752649 -2.39758,-3.720487 -0.12081,0.0814 -1.62821,5.434009 -3.13285,11.124521 l -0.086,0.325006 -0.89025,2e-4 c -1.29023,3e-4 -5.55142,-0.197865 -6.30341,-0.293193 -0.35323,-0.04478 -0.65714,-0.06718 -0.67536,-0.04978 -0.0659,0.06298 3.3444,7.055308 4.9714,10.192935 1.62637,3.136444 1.6071,3.085042 1.21754,3.246479 -0.58769,0.243537 -2.6295,0.400256 -13.082848,1.004165 -2.90156,0.16763 -5.626488,0.348243 -6.055414,0.401363 -1.084191,0.13427 -4.585117,0.379055 -6.601019,0.461544 l -1.683714,0.0689 0.06617,-0.291181 c 0.0541,-0.237906 0.766173,-2.228428 2.165688,-6.053805 l 0.169204,-0.462532 -1.439191,-0.729362 c -0.79155,-0.401122 -3.420968,-1.7603 -5.843136,-3.02037 -5.545859,-2.885089 -7.008645,-3.619728 -7.071365,-3.551369 -0.0274,0.02992 0.401501,1.038021 0.953198,2.240245 3.421577,7.456019 6.197797,16.065541 7.71848,23.936283 0.506659,2.622426 0.499165,2.60005 0.871495,2.60005 0.165819,0 0.516075,-0.04436 0.778341,-0.09857 3.131511,-0.647299 14.747593,-2.158265 18.448433,-2.399687 0.83262,-0.05431 2.42217,-0.210058 3.532328,-0.346095 6.21844,-0.761995 14.12024,-0.874355 21.23984,-0.302017 19.50357,1.56787 38.03803,7.999973 53.16842,18.451258 4.58315,3.165817 9.032,6.879481 12.97985,10.834891 0.52843,0.52943 1.00323,0.94758 1.05511,0.92922 0.0519,-0.0184 0.38764,-0.54755 0.74613,-1.17596 z"
       id="path1406"
       inkscape:connector-curvature="0"
       sodipodi:nodetypes="cccccccccccsccccccccccccccsccccccsccsssscccsccsscscscccccscccsccsccscssscsscsccsccccccccsccccccscscsccscccccccccsccccsccccccssccccscccscccccccssssccsscccccccsccccsccssssscscccscccccssccsccccccccscccccsscssscccscscsccccccccccccccccccscsscsccccccccsccccccccccccssccccssccccccccccsscccccscccccccccccsccccccccccccscsccccscscscccscccccccscccccccccccccccccccccccccccccccccsccccccccccccccccccccccscccsccscccccccccccccccccssccccscsscsssccccccccccccscccccccscccsccssscccc"
       inkscape:export-filename="E:\Projects\fvhssec.github.io\assets\images\icons\shortcut_light.png"
       inkscape:export-xdpi="96"
       inkscape:export-ydpi="96" />
  </g>
</svg>
